<svg width="29" height="29" viewBox="0 0 29 29" fill="none" xmlns="http://www.w3.org/2000/svg">
<path d="M26.03 0H2.96997C1.33017 0 0 1.32931 0 2.96997V26.03C0 27.6698 1.32931 29 2.96997 29H26.03C27.6698 29 29 27.6707 29 26.03V2.96997C29 1.33017 27.6707 0 26.03 0ZM13.4911 19.4207H6.3594V17.9201L8.92028 15.3316C9.43661 14.8014 9.85175 14.3586 10.1657 14.0023C10.4796 13.6459 10.708 13.3216 10.8498 13.0284C10.9916 12.7352 11.0626 12.4213 11.0626 12.0866C11.0626 11.6818 10.9493 11.3782 10.7244 11.1759C10.4987 10.9735 10.1977 10.8723 9.82062 10.8723C9.42537 10.8723 9.04137 10.9631 8.66947 11.1447C8.29758 11.3264 7.90925 11.5841 7.50449 11.9197L6.33259 10.5307C6.62578 10.2799 6.93627 10.042 7.26406 9.81888C7.59184 9.59575 7.97325 9.41499 8.40828 9.27834C8.84331 9.14083 9.36569 9.0725 9.97456 9.0725C10.6448 9.0725 11.22 9.19358 11.7017 9.43575C12.1834 9.67791 12.5545 10.0066 12.8148 10.4234C13.0751 10.8394 13.2057 11.3108 13.2057 11.8366C13.2057 12.3997 13.0942 12.9134 12.871 13.3787C12.6479 13.844 12.3235 14.3041 11.8972 14.7608C11.4717 15.2165 10.9588 15.7216 10.3586 16.2751L9.04655 17.5102V17.6079H13.4911V19.4224V19.4207ZM23.0471 17.1002C22.6077 17.87 21.9712 18.4494 21.1383 18.8378C20.3055 19.2261 19.3031 19.4207 18.1312 19.4207H15.2425V9.21866H18.4451C19.515 9.21866 20.443 9.40807 21.2291 9.78775C22.0153 10.1666 22.625 10.7279 23.0575 11.4691C23.4899 12.2111 23.7061 13.1287 23.7061 14.2219C23.7061 15.3714 23.4864 16.3305 23.0471 17.1002Z" fill="#494949"/>
</svg>
