<svg width="29" height="27" viewBox="0 0 29 27" fill="none" xmlns="http://www.w3.org/2000/svg">
<path d="M28.9987 19.0032C28.9898 19.0911 28.978 19.1791 28.9725 19.2671C28.9401 19.8012 28.927 20.3373 28.8731 20.8693C28.8131 21.4571 28.5212 21.9514 28.1658 22.4045C28.0229 22.5867 27.8497 22.7438 27.6882 22.9107C27.301 23.3107 26.7917 23.4678 26.2845 23.6193C23.9712 24.3069 21.6565 24.9904 19.3411 25.6711C18.3349 25.9671 17.3197 26.2247 16.2776 26.3588C16.0554 26.3874 15.8332 26.4111 15.582 26.4411C15.5033 20.8107 15.5599 15.2032 15.5371 9.57903C15.7683 9.51061 15.996 9.44149 16.2252 9.37517C18.8359 8.62049 21.4467 7.8651 24.0581 7.11181C25.486 6.69991 26.9152 6.2915 28.3438 5.88169C28.5674 5.81746 28.5715 5.81886 28.662 6.04576C28.8945 6.63079 28.9704 7.24236 28.9684 7.86859C28.967 8.33565 28.9732 8.8034 28.9773 9.27115C28.9773 9.31653 28.9911 9.36261 28.9987 9.40798V19.0032ZM18.533 22.3773C18.6178 22.3598 18.6689 22.3535 18.7179 22.3389C19.5744 22.0806 20.4308 21.8195 21.2873 21.5612C21.9663 21.3566 22.6344 21.1262 23.2334 20.7311C24.8386 19.672 25.958 18.2639 26.2996 16.3112C26.4563 15.4162 26.4901 14.5135 26.2817 13.6212C26.0326 12.5545 25.4805 11.7049 24.4411 11.2811C23.6827 10.9718 22.8759 10.9334 22.0885 11.1205C20.9236 11.397 19.7745 11.7391 18.6171 12.0469C18.515 12.0742 18.515 12.1279 18.515 12.2061C18.515 13.2498 18.5116 14.2936 18.5136 15.3373C18.5185 17.5322 18.5267 19.7279 18.533 21.9228C18.533 22.0652 18.533 22.2076 18.533 22.3766V22.3773Z" fill="#494949"/>
<path d="M13.4671 9.57913C13.4444 15.2026 13.501 20.8101 13.4209 26.4468C13.0993 26.4028 12.8053 26.3616 12.5113 26.3219C11.089 26.1306 9.72459 25.6942 8.3533 25.2914C6.29465 24.6861 4.24153 24.0613 2.1884 23.4365C1.53278 23.2368 1.08902 22.7516 0.697722 22.2175C0.280195 21.6471 0.08765 21.0007 0.0648758 20.2886C-0.047615 16.8593 0.0213977 13.4287 0.0165669 9.99871C0.0151866 9.18677 0.0324398 8.37414 0.0441719 7.56221C0.0517633 7.00509 0.173226 6.47102 0.373363 5.953C0.41477 5.84549 0.463079 5.82803 0.572809 5.86015C2.26776 6.34954 3.96478 6.83196 5.65974 7.31995C8.18008 8.04532 10.699 8.77417 13.218 9.50233C13.2974 9.52537 13.3767 9.5512 13.4671 9.57982V9.57913ZM4.88265 13.4831C4.90267 13.4545 4.9144 13.4433 4.91923 13.4294C4.95098 13.34 4.9841 13.2506 5.01171 13.1592C5.16078 12.6607 5.58451 12.4031 6.08279 12.5099C6.85642 12.6754 7.36228 13.3204 7.3119 14.117C7.28499 14.5429 7.07726 14.8871 6.61004 14.9024C6.38023 14.9101 6.14904 14.9003 5.91854 14.885C5.75359 14.8738 5.67147 14.9471 5.64939 15.1021C5.60315 15.4274 5.55139 15.7528 5.51757 16.0802C5.4879 16.3664 5.51412 16.3881 5.80397 16.4272C5.86125 16.4348 5.91854 16.4418 5.97513 16.4502C6.59831 16.5382 7.0952 16.8321 7.41887 17.3857C7.69009 17.85 7.75772 18.3561 7.69906 18.8888C7.61487 19.6532 6.98064 20.0575 6.26843 19.7929C5.49618 19.5066 5.10626 18.9021 4.93717 18.1306C4.89508 17.9386 4.80605 17.8576 4.63697 17.8248C4.1801 17.7369 3.72324 17.6475 3.26569 17.5609C2.99447 17.51 2.97031 17.5344 2.99999 17.8088C3.00206 17.8297 3.0062 17.8507 3.01103 17.8716C3.2719 19.1296 3.9634 20.0952 4.98755 20.8282C5.78672 21.4007 6.66594 21.6806 7.66111 21.6304C8.20217 21.6031 8.65627 21.4258 9.04826 21.0809C9.72114 20.4889 9.86123 19.6819 9.74805 18.8574C9.61003 17.8576 9.09795 17.045 8.2629 16.4614C8.16214 16.3909 8.06483 16.3155 7.94061 16.2233C8.07449 16.1584 8.17042 16.1046 8.27118 16.0634C9.09519 15.7283 9.44716 14.9324 9.28567 14.0821C9.16144 13.4287 8.86607 12.8513 8.44095 12.3472C7.60452 11.3552 6.53344 10.8058 5.25463 10.6941C4.60108 10.6368 4.03104 10.8483 3.62386 11.3992C3.39543 11.7077 3.2436 12.0554 3.14629 12.4289C3.11731 12.5406 3.14284 12.6167 3.23808 12.6698C3.37542 12.7466 3.51275 12.8241 3.65354 12.8925C4.06209 13.0915 4.47272 13.2862 4.88196 13.4824L4.88265 13.4831Z" fill="#494949"/>
<path d="M27.202 3.98822C26.6983 4.13622 26.2228 4.27864 25.7466 4.41617C23.5803 5.0431 21.4139 5.67003 19.247 6.29556C17.708 6.73958 16.169 7.18289 14.6286 7.62342C14.5624 7.64227 14.483 7.64855 14.4181 7.6297C12.1193 6.97136 9.8205 6.31092 7.52307 5.64699C5.66318 5.10943 3.80466 4.56697 1.94546 4.02592C1.90612 4.01475 1.86817 3.99869 1.81641 3.98054C2.07313 3.72781 2.35194 3.52675 2.67769 3.41784C3.65076 3.09251 4.62315 2.76299 5.60589 2.47186C7.3319 1.96083 9.06481 1.47492 10.797 0.984132C11.699 0.728614 12.6059 0.488454 13.5375 0.371167C13.8274 0.334864 14.1248 0.347431 14.4181 0.359299C15.298 0.39281 16.1793 0.405376 17.0379 0.654611C17.9323 0.915016 18.8343 1.14959 19.7293 1.4086C21.5596 1.93849 23.3891 2.47396 25.2159 3.01641C25.5968 3.12951 25.9674 3.27751 26.3394 3.41923C26.6562 3.54001 26.9336 3.72921 27.202 3.98891V3.98822Z" fill="#494949"/>
<path d="M20.4531 20.0523C20.4531 19.5684 20.4531 19.086 20.4531 18.6036C20.4552 17.1864 20.4559 15.7692 20.4607 14.352C20.4614 14.0601 20.48 13.769 20.489 13.4772C20.4938 13.3348 20.5463 13.2517 20.6995 13.2126C21.2937 13.0611 21.8817 12.8929 22.5035 12.897C23.2647 12.9026 23.852 13.1965 24.1577 13.9275C24.2661 14.1872 24.3365 14.4727 24.3696 14.7527C24.469 15.5974 24.4379 16.438 24.1626 17.2506C23.7947 18.3369 23.0653 19.0958 22.0301 19.5398C21.5463 19.7472 21.0321 19.884 20.5311 20.0516C20.5125 20.0578 20.4904 20.0523 20.4531 20.0523Z" fill="#494949"/>
</svg>
