<svg width="26" height="26" viewBox="0 0 26 26" fill="none" xmlns="http://www.w3.org/2000/svg">
<path d="M15.4171 25.9991H14.4884C14.2496 25.9608 14.0938 25.7959 13.9452 25.6274C13.8988 25.5745 13.8614 25.4916 13.8605 25.4224C13.855 24.371 13.8568 23.3197 13.8568 22.2674C13.8568 22.2164 13.8568 22.1653 13.8568 22.1143H12.1489V22.281C12.1489 23.3279 12.1489 24.3756 12.1471 25.4224C12.1471 25.4752 12.1398 25.5445 12.107 25.5791C11.9393 25.7577 11.7826 25.9554 11.5173 25.9982H10.5887C10.3663 25.9681 10.1849 25.8615 10.0227 25.7094C9.95616 25.6474 9.92517 25.5882 9.92426 25.4953C9.91332 24.4175 9.89783 23.3397 9.88234 22.2619C9.88234 22.2145 9.87778 22.1672 9.87505 22.1116H8.17533C8.17533 22.1708 8.17533 22.2227 8.17533 22.2747C8.17533 23.326 8.17533 24.3774 8.17351 25.4288C8.17351 25.4816 8.16622 25.5518 8.1325 25.5855C7.96116 25.7595 7.80805 25.9654 7.53737 25.9973H6.66245C6.6424 25.99 6.62235 25.98 6.60139 25.9763C6.20403 25.9216 6.05365 25.795 5.99624 25.3969C5.94976 25.0744 5.92971 24.7464 5.92515 24.4202C5.91421 23.7041 5.92059 22.988 5.91968 22.2719C5.91968 22.2246 5.91968 22.1781 5.91968 22.1289C5.59523 22.1089 5.28719 22.087 4.97914 22.0724C4.35029 22.0423 3.88549 21.3836 3.9019 20.9199C3.9101 20.6858 3.90099 20.4516 3.89916 20.2175C3.89916 20.1756 3.89916 20.1328 3.89916 20.0836C3.83081 20.0836 3.78251 20.0836 3.7342 20.0836C2.94313 20.0817 2.15115 20.0881 1.36007 20.0745C1.06114 20.069 0.760388 20.0353 0.466925 19.9788C0.183487 19.9232 0.055895 19.7556 0.0321993 19.4677C0.0130604 19.239 0.0212628 19.0085 0.00394667 18.7798C-0.0224832 18.4282 0.0823249 18.1403 0.36394 17.9161C0.434116 17.8606 0.493355 17.8269 0.584492 17.8278C1.63257 17.8305 2.67974 17.8296 3.72782 17.8296C3.77977 17.8296 3.83172 17.8296 3.89005 17.8296V16.1305C3.83901 16.1277 3.79618 16.125 3.75243 16.1241C2.66972 16.1086 1.587 16.094 0.50338 16.0785C0.4569 16.0785 0.391281 16.0822 0.366674 16.0548C0.215386 15.8899 0.0376675 15.736 0.026731 15.4891C0.0148832 15.2112 0.012149 14.9333 0.00576941 14.6545C0.000301167 14.4168 0.0677429 14.2109 0.259132 14.056C0.296498 14.0259 0.332042 13.9913 0.362117 13.953C0.421356 13.8774 0.495178 13.8546 0.591783 13.8546C1.63986 13.8583 2.68703 13.8565 3.73511 13.8565H3.88823V12.1491C3.82625 12.1491 3.77339 12.1491 3.72053 12.1491C2.72622 12.1491 1.731 12.1427 0.736692 12.1546C0.533455 12.1573 0.394926 12.0963 0.253663 11.9532C0.0814135 11.7792 0.00121254 11.5879 0.00576941 11.3501C0.00941491 11.1597 0.0103263 10.9702 0.00576941 10.7798C-0.00243296 10.4873 0.0786794 10.2341 0.292852 10.0245C0.356649 9.96167 0.413154 9.92613 0.506114 9.92522C1.46944 9.91702 2.43367 9.90336 3.39699 9.89151C3.55922 9.88969 3.72144 9.89151 3.89096 9.89151V8.17689H3.72691C2.71893 8.17689 1.71095 8.17234 0.702971 8.18054C0.525253 8.18236 0.398572 8.13772 0.277359 8.00562C0.136096 7.85073 0.00941491 7.69859 0.012149 7.4772C0.0148832 7.1729 0.00850354 6.86679 0.0312879 6.5634C0.055895 6.22176 0.20536 6.05321 0.544392 6.00492C0.879778 5.95755 1.22154 5.93295 1.56057 5.92748C2.28512 5.91564 3.01057 5.92293 3.73511 5.92202C3.78159 5.92202 3.82899 5.92202 3.87547 5.92202C3.89461 5.60406 3.91739 5.30432 3.92924 5.00458C3.95476 4.36137 4.59545 3.88306 5.09853 3.90401C5.3282 3.91313 5.55786 3.90401 5.78844 3.90219C5.83037 3.90219 5.87229 3.90219 5.9215 3.90219C5.9215 3.8284 5.9215 3.77555 5.9215 3.72271C5.92333 2.94011 5.91968 2.15842 5.93153 1.37582C5.93609 1.0943 5.96069 0.810959 6.00353 0.532174C6.05456 0.201459 6.22499 0.0602442 6.55855 0.0365566C6.78275 0.0210686 7.00877 0.0238018 7.23388 0.00649158C7.58112 -0.0208403 7.86364 0.0884872 8.08693 0.361806C8.14708 0.435602 8.17898 0.499376 8.17898 0.595038C8.17624 1.64276 8.17716 2.68957 8.17716 3.73729C8.17716 3.78831 8.17716 3.83933 8.17716 3.89217H9.87505C9.87778 3.83842 9.88234 3.79195 9.88325 3.74458C9.89874 2.66588 9.91241 1.5881 9.92882 0.509398C9.92882 0.462023 9.92335 0.396426 9.95069 0.371827C10.112 0.223324 10.2615 0.0474894 10.5021 0.0320013C10.7308 0.0174243 10.9614 0.0228907 11.1902 0.00466946C11.5474 -0.0244845 11.8391 0.0811987 12.0642 0.369094C12.1189 0.439246 12.1526 0.499376 12.1517 0.590482C12.1489 1.6382 12.1498 2.68501 12.1498 3.73273C12.1498 3.78375 12.1498 3.83477 12.1498 3.88944H13.8578V3.72362C13.8578 2.72055 13.8623 1.71747 13.8532 0.713476C13.8514 0.531263 13.9079 0.406448 14.0327 0.276166C14.2159 0.0875761 14.4228 0.00375839 14.6807 0.0110469C14.8666 0.0165133 15.0526 0.0165133 15.2376 0.0110469C15.5201 0.00375839 15.7644 0.0839318 15.9712 0.286188C16.0478 0.360895 16.0806 0.429224 16.0815 0.534908C16.0915 1.60449 16.1079 2.67408 16.1225 3.74367C16.1225 3.79104 16.1262 3.83933 16.1289 3.89399H17.8286V3.73C17.8286 2.73603 17.835 1.74115 17.8231 0.747185C17.8204 0.533996 17.8769 0.383671 18.0373 0.244279C18.1831 0.11673 18.3317 0.0174243 18.5286 0.0174243C18.8284 0.0174243 19.1301 0.012869 19.429 0.0347345C19.7844 0.0602442 19.9521 0.207836 20.0022 0.56315C20.0496 0.902977 20.0733 1.24827 20.0788 1.59265C20.0906 2.3133 20.0834 3.03304 20.0843 3.75369C20.0843 3.80015 20.0843 3.84662 20.0843 3.90857C20.3549 3.90857 20.6065 3.91039 20.8571 3.90857C21.6072 3.90037 22.1367 4.56727 22.1048 5.15308C22.0929 5.369 22.1048 5.58583 22.1057 5.80267C22.1057 5.84093 22.1103 5.8792 22.1139 5.92566C22.1722 5.92566 22.2205 5.92566 22.2688 5.92566C22.9979 5.92566 23.7279 5.91928 24.457 5.93113C24.7961 5.93659 25.1369 5.9621 25.4723 6.0113C25.7968 6.05868 25.9307 6.22631 25.9763 6.55338C25.9809 6.58345 25.9918 6.6126 26 6.64176V7.54371C25.9617 7.77603 25.805 7.92909 25.6482 8.0867C25.5808 8.15412 25.5152 8.18418 25.4176 8.18327C24.3705 8.17963 23.3233 8.18054 22.2761 8.18054H22.1139V9.87967C22.1649 9.8824 22.2078 9.88514 22.2515 9.88605C23.3342 9.90154 24.416 9.91702 25.4987 9.92887C25.5917 9.92978 25.65 9.96075 25.712 10.0273C25.8633 10.1894 25.9708 10.3707 26 10.593V11.5214C25.9608 11.7601 25.7968 11.9168 25.6282 12.0644C25.5753 12.1109 25.4924 12.1491 25.4231 12.1491C24.3714 12.1546 23.3196 12.1528 22.2679 12.1528H22.1148V13.8601H22.2816C23.3288 13.8601 24.3759 13.8601 25.4231 13.8619C25.476 13.8619 25.5452 13.8701 25.5799 13.902C25.7585 14.0687 25.9563 14.2263 25.9991 14.4915V15.4198C25.9699 15.6485 25.8569 15.8307 25.702 15.9956C25.6464 16.0548 25.5944 16.0831 25.5106 16.084C24.5919 16.0922 23.6733 16.105 22.7537 16.115C22.5432 16.1177 22.3317 16.115 22.113 16.115V17.8314C22.1722 17.8314 22.2233 17.8314 22.2752 17.8314C23.3269 17.8314 24.3787 17.8314 25.4295 17.8332C25.4823 17.8332 25.5516 17.8414 25.5862 17.8742C25.763 18.0437 25.9635 18.1995 25.9982 18.4683V19.3438C25.9909 19.3638 25.9799 19.3839 25.9772 19.4048C25.9225 19.8011 25.7959 19.9524 25.3976 20.0098C25.075 20.0562 24.7469 20.0763 24.4215 20.0808C23.7061 20.0918 22.9897 20.0854 22.2743 20.0863C22.2269 20.0863 22.1795 20.0863 22.1294 20.0863C22.1093 20.4134 22.0966 20.7259 22.0702 21.0374C22.0273 21.544 21.6527 21.9585 21.1515 22.0487C20.961 22.0833 20.766 22.0888 20.5719 22.1034C20.4105 22.1152 20.2492 22.1198 20.0824 22.128C20.0824 22.1972 20.0824 22.2501 20.0824 22.3029C20.0806 23.0846 20.087 23.8672 20.0724 24.6489C20.067 24.9432 20.0269 25.2384 19.9767 25.5281C19.9312 25.7941 19.7434 25.9317 19.48 25.9699C19.4326 25.9772 19.3871 25.9891 19.3397 25.9991H18.4648C18.2287 25.9654 18.0792 25.8032 17.9225 25.6465C17.855 25.58 17.825 25.5135 17.825 25.416C17.8286 24.3692 17.8277 23.3224 17.8277 22.2756V22.1134H16.128C16.1253 22.1681 16.1216 22.2164 16.1216 22.2637C16.107 23.3415 16.0906 24.4193 16.0797 25.4971C16.0788 25.59 16.0478 25.6483 15.9813 25.7112C15.819 25.8633 15.6377 25.9699 15.4153 26L15.4171 25.9991ZM8.49887 16.4038C8.49887 16.4038 8.49887 16.3974 8.49887 16.3938C8.8215 16.3938 9.14412 16.3901 9.46675 16.3956C9.56518 16.3974 9.61439 16.371 9.64447 16.2699C9.72194 16.012 9.81854 15.7606 9.89874 15.5037C9.92791 15.4107 9.96801 15.3716 10.0728 15.3697C10.8019 15.3615 11.531 15.3479 12.2601 15.3324C12.3449 15.3306 12.3841 15.3533 12.4087 15.4381C12.4934 15.7351 12.59 16.0284 12.6757 16.3254C12.6985 16.4038 12.7304 16.4293 12.8124 16.4284C13.1706 16.4238 13.5287 16.4293 13.886 16.4256C14.2396 16.422 14.5923 16.4156 14.9459 16.3992C15.0972 16.3929 15.1145 16.3546 15.0644 16.2143C14.8903 15.7332 14.7172 15.2522 14.5422 14.7712C13.835 12.827 13.1259 10.8837 12.4196 8.93945C12.3859 8.84744 12.3522 8.79368 12.2364 8.79824C11.9584 8.80826 11.6796 8.79733 11.4016 8.80279C10.9906 8.81099 10.5805 8.82466 10.1703 8.8365C10.0664 8.83924 10.009 8.88479 9.97074 8.99047C9.0858 11.4048 8.19538 13.8173 7.30679 16.2307C7.25393 16.3728 7.26305 16.3974 7.41433 16.4011C7.77615 16.4083 8.13888 16.4029 8.50069 16.4029L8.49887 16.4038ZM17.9562 16.3847V8.81099H15.5994V16.3856H17.9562V16.3847Z" fill="#656565"/>
<path d="M11.2252 11.4468C11.299 11.6618 11.3719 11.8558 11.4312 12.0526C11.5807 12.5464 11.721 13.042 11.8723 13.5358C11.9015 13.6306 11.8768 13.6771 11.7866 13.6771C11.3947 13.6771 11.0028 13.6734 10.6109 13.6652C10.5508 13.6643 10.4998 13.6361 10.5271 13.5532C10.7467 12.8699 10.9637 12.1847 11.1824 11.5014C11.186 11.4896 11.1979 11.4814 11.2261 11.4468H11.2252Z" fill="#656565"/>
</svg>
