<svg width="21" height="25" viewBox="0 0 21 25" fill="none" xmlns="http://www.w3.org/2000/svg">
<path d="M21 18.3426C20.4257 19.6434 20.151 20.225 19.4135 21.3745C18.383 22.9799 16.9281 24.9831 15.1293 24.9969C13.5293 25.0106 13.1164 23.9289 10.945 23.9466C8.77362 23.9574 8.32128 25.0165 6.7194 24.9998C4.92064 24.9831 3.54348 23.1783 2.51205 21.5759C-0.371924 17.0811 -0.676359 11.8132 1.10608 9.01019C2.36703 7.02266 4.36267 5.85549 6.23634 5.85549C8.14458 5.85549 9.34407 6.92834 10.9219 6.92834C12.4528 6.92834 13.3853 5.85254 15.5922 5.85254C17.2613 5.85254 19.0265 6.78294 20.2874 8.38828C16.1617 10.701 16.832 16.7294 21 18.3426ZM13.9173 4.05856C14.7202 3.00438 15.3291 1.51693 15.1082 0C13.7982 0.0913692 12.2665 0.947096 11.3714 2.05532C10.5609 3.06431 9.8886 4.56355 10.1508 6.01367C11.5798 6.06083 13.0588 5.18938 13.9173 4.05856Z" fill="white"/>
</svg>
