<svg width="84" height="26" viewBox="0 0 84 26" fill="none" xmlns="http://www.w3.org/2000/svg">
<path d="M51.2247 19L49.9648 15.4316H45.0396L43.7797 19H41.5507L46.3436 6.09766H48.6872L53.4714 19H51.2247ZM49.4185 13.6211L48.1938 10.1055C48.1468 9.95312 48.0793 9.73926 47.9912 9.46387C47.9031 9.18262 47.815 8.89844 47.7269 8.61133C47.6388 8.31836 47.5653 8.07227 47.5066 7.87305C47.4479 8.11328 47.3744 8.38281 47.2863 8.68164C47.2041 8.97461 47.1219 9.25 47.0396 9.50781C46.9633 9.76562 46.9046 9.96484 46.8634 10.1055L45.63 13.6211H49.4185Z" fill="#606060"/>
<path d="M59.9648 9.08594C61.1219 9.08594 62.0499 9.50781 62.7489 10.3516C63.4537 11.1953 63.8062 12.4492 63.8062 14.1133C63.8062 15.2148 63.6417 16.1436 63.3128 16.8994C62.9897 17.6494 62.5345 18.2178 61.9471 18.6045C61.3656 18.9854 60.6872 19.1758 59.9119 19.1758C59.4185 19.1758 58.9897 19.1113 58.6255 18.9824C58.2614 18.8535 57.9501 18.6865 57.6916 18.4814C57.4332 18.2705 57.2159 18.042 57.0396 17.7959H56.9163C56.9457 18.0303 56.9721 18.291 56.9956 18.5781C57.025 18.8594 57.0396 19.1172 57.0396 19.3516V23.3154H54.9604V9.27051H56.652L56.9427 10.6152H57.0396C57.2217 10.3398 57.442 10.085 57.7004 9.85059C57.9648 9.61621 58.2819 9.43164 58.652 9.29688C59.0279 9.15625 59.4655 9.08594 59.9648 9.08594ZM59.4097 10.7734C58.8399 10.7734 58.3818 10.8877 58.0352 11.1162C57.6946 11.3389 57.4449 11.6758 57.2863 12.127C57.1336 12.5781 57.0514 13.1436 57.0396 13.8232V14.1133C57.0396 14.834 57.1131 15.4463 57.2599 15.9502C57.4126 16.4482 57.6623 16.8291 58.0088 17.0928C58.3612 17.3506 58.837 17.4795 59.4361 17.4795C59.9413 17.4795 60.3583 17.3418 60.6872 17.0664C61.022 16.791 61.2717 16.3984 61.4361 15.8887C61.6006 15.3789 61.6828 14.7783 61.6828 14.0869C61.6828 13.0381 61.4949 12.2236 61.1189 11.6436C60.7489 11.0635 60.1791 10.7734 59.4097 10.7734Z" fill="#606060"/>
<path d="M71.207 9.08594C72.3642 9.08594 73.2922 9.50781 73.9912 10.3516C74.696 11.1953 75.0485 12.4492 75.0485 14.1133C75.0485 15.2148 74.884 16.1436 74.5551 16.8994C74.232 17.6494 73.7768 18.2178 73.1894 18.6045C72.6079 18.9854 71.9295 19.1758 71.1542 19.1758C70.6608 19.1758 70.232 19.1113 69.8678 18.9824C69.5037 18.8535 69.1924 18.6865 68.9339 18.4814C68.6755 18.2705 68.4581 18.042 68.2819 17.7959H68.1586C68.188 18.0303 68.2144 18.291 68.2379 18.5781C68.2673 18.8594 68.2819 19.1172 68.2819 19.3516V23.3154H66.2026V9.27051H67.8943L68.185 10.6152H68.2819C68.464 10.3398 68.6843 10.085 68.9427 9.85059C69.207 9.61621 69.5242 9.43164 69.8943 9.29688C70.2702 9.15625 70.7078 9.08594 71.207 9.08594ZM70.652 10.7734C70.0822 10.7734 69.6241 10.8877 69.2775 11.1162C68.9369 11.3389 68.6872 11.6758 68.5286 12.127C68.3759 12.5781 68.2937 13.1436 68.2819 13.8232V14.1133C68.2819 14.834 68.3554 15.4463 68.5022 15.9502C68.6549 16.4482 68.9045 16.8291 69.2511 17.0928C69.6035 17.3506 70.0793 17.4795 70.6784 17.4795C71.1836 17.4795 71.6006 17.3418 71.9295 17.0664C72.2643 16.791 72.5139 16.3984 72.6784 15.8887C72.8429 15.3789 72.9251 14.7783 72.9251 14.0869C72.9251 13.0381 72.7372 12.2236 72.3612 11.6436C71.9912 11.0635 71.4214 10.7734 70.652 10.7734Z" fill="#606060"/>
<path d="M84 16.2227C84 16.8613 83.8443 17.4004 83.533 17.8398C83.2217 18.2793 82.7665 18.6133 82.1674 18.8418C81.5742 19.0645 80.8458 19.1758 79.9824 19.1758C79.301 19.1758 78.7137 19.126 78.2203 19.0264C77.7327 18.9326 77.2717 18.7861 76.837 18.5869V16.8027C77.301 17.0195 77.8209 17.207 78.3965 17.3652C78.978 17.5234 79.5272 17.6025 80.0441 17.6025C80.7254 17.6025 81.2159 17.4971 81.5154 17.2861C81.815 17.0693 81.9648 16.7822 81.9648 16.4248C81.9648 16.2139 81.9031 16.0264 81.7797 15.8623C81.6623 15.6924 81.4391 15.5195 81.1101 15.3438C80.7871 15.1621 80.3113 14.9453 79.6828 14.6934C79.0661 14.4473 78.5463 14.2012 78.1233 13.9551C77.7004 13.709 77.3803 13.4131 77.163 13.0674C76.9457 12.7158 76.837 12.2676 76.837 11.7227C76.837 10.8613 77.1777 10.208 77.859 9.7627C78.5463 9.31152 79.4537 9.08594 80.5815 9.08594C81.1806 9.08594 81.7445 9.14746 82.2731 9.27051C82.8076 9.3877 83.3304 9.56055 83.8414 9.78906L83.1894 11.3447C82.7489 11.1514 82.3054 10.9932 81.859 10.8701C81.4185 10.7412 80.9692 10.6768 80.511 10.6768C79.9765 10.6768 79.5683 10.7588 79.2863 10.9229C79.0103 11.0869 78.8722 11.3213 78.8722 11.626C78.8722 11.8545 78.9398 12.0479 79.0749 12.2061C79.21 12.3643 79.442 12.5225 79.7709 12.6807C80.1057 12.8389 80.5697 13.0352 81.163 13.2695C81.7445 13.4922 82.2467 13.7266 82.6696 13.9727C83.0984 14.2129 83.4273 14.5088 83.6564 14.8604C83.8855 15.2119 84 15.666 84 16.2227Z" fill="#606060"/>
<path d="M6.17297 12.3158C5.36232 12.3158 4.55961 12.1565 3.81067 11.847C3.06174 11.5376 2.38123 11.084 1.80802 10.5122C1.23481 9.94037 0.780109 9.26153 0.469889 8.51442C0.159668 7.76731 0 6.96656 0 6.1579C0 5.34923 0.159668 4.54848 0.469889 3.80137C0.780109 3.05426 1.23481 2.37542 1.80802 1.80361C2.38123 1.23179 3.06174 0.778205 3.81067 0.468742C4.55961 0.159279 5.36232 -1.20501e-08 6.17297 0C7.81014 2.43362e-08 9.38025 0.648776 10.5379 1.80361C11.6956 2.95843 12.3459 4.52472 12.3459 6.1579C12.3459 7.79107 11.6956 9.35735 10.5379 10.5122C9.38025 11.667 7.81014 12.3158 6.17297 12.3158ZM6.17297 26C4.53579 26 2.96568 25.3512 1.80802 24.1964C0.650364 23.0416 0 21.4753 0 19.8421C0 18.2089 0.650364 16.6426 1.80802 15.4878C2.96568 14.333 4.53579 13.6842 6.17297 13.6842C7.81014 13.6842 9.38025 14.333 10.5379 15.4878C11.6956 16.6426 12.3459 18.2089 12.3459 19.8421C12.3459 21.4753 11.6956 23.0416 10.5379 24.1964C9.38025 25.3512 7.81014 26 6.17297 26ZM19.8907 12.3158C19.08 12.3158 18.2773 12.1565 17.5284 11.847C16.7794 11.5376 16.0989 11.084 15.5257 10.5122C14.9525 9.94037 14.4978 9.26153 14.1876 8.51442C13.8774 7.76731 13.7177 6.96656 13.7177 6.1579C13.7177 5.34923 13.8774 4.54848 14.1876 3.80137C14.4978 3.05426 14.9525 2.37542 15.5257 1.80361C16.0989 1.23179 16.7794 0.778205 17.5284 0.468742C18.2773 0.159279 19.08 -1.20501e-08 19.8907 0C21.5278 2.43362e-08 23.098 0.648776 24.2556 1.80361C25.4133 2.95843 26.0636 4.52472 26.0636 6.1579C26.0636 7.79107 25.4133 9.35735 24.2556 10.5122C23.098 11.667 21.5278 12.3158 19.8907 12.3158ZM19.8907 26C18.2535 26 16.6834 25.3512 15.5257 24.1964C14.3681 23.0416 13.7177 21.4753 13.7177 19.8421C13.7177 18.2089 14.3681 16.6426 15.5257 15.4878C16.6834 14.333 18.2535 13.6842 19.8907 13.6842C21.5278 13.6842 23.098 14.333 24.2556 15.4878C25.4133 16.6426 26.0636 18.2089 26.0636 19.8421C26.0636 21.4753 25.4133 23.0416 24.2556 24.1964C23.098 25.3512 21.5278 26 19.8907 26Z" fill="#606060"/>
</svg>
