<svg width="29" height="22" viewBox="0 0 29 22" fill="none" xmlns="http://www.w3.org/2000/svg">
<path d="M14.4995 2.262C17.8654 2.262 20.8904 3.42381 22.9277 5.51363C24.604 5.73163 26.1854 6.41618 27.4916 7.48925C25.206 2.68613 20.4717 0 14.4995 0C8.60892 0 3.84205 2.6825 1.5293 7.47113C2.72688 6.49367 4.15547 5.84022 5.67811 5.57344C7.6773 3.393 10.8274 2.262 14.4995 2.262Z" fill="#656565"/>
<path d="M21.7504 21.75C19.8645 21.7522 18.0524 21.0172 16.7008 19.7019L16.6972 19.6983C16.541 19.5809 16.3734 19.4795 16.1969 19.3956C15.6657 19.149 15.086 19.0245 14.5004 19.0313C13.7501 19.0313 13.1791 19.2179 12.8057 19.3956C12.6287 19.4794 12.4605 19.5808 12.3037 19.6983L12.3001 19.7019C11.4478 20.5292 10.4054 21.1345 9.26444 21.4645C8.12347 21.7945 6.91888 21.8392 5.75661 21.5945C4.59433 21.3499 3.50997 20.8234 2.59886 20.0614C1.68775 19.2994 0.977798 18.3253 0.531437 17.2246C0.0850752 16.1239 -0.0840274 14.9304 0.0389974 13.7491C0.162022 12.5677 0.573406 11.4347 1.23698 10.4496C1.90055 9.46447 2.79598 8.65749 3.84454 8.09958C4.89311 7.54167 6.06268 7.24993 7.25043 7.25H21.7504C23.6732 7.25 25.5173 8.01384 26.8769 9.37348C28.2366 10.7331 29.0004 12.5772 29.0004 14.5C29.0004 16.4228 28.2366 18.2669 26.8769 19.6265C25.5173 20.9862 23.6732 21.75 21.7504 21.75Z" fill="#656565"/>
</svg>
