<svg width="43" height="43" viewBox="0 0 43 43" fill="none" xmlns="http://www.w3.org/2000/svg">
<circle cx="21.5" cy="21.5" r="21.5" fill="#F18B00"/>
<path d="M21.5 24.875C24.4877 24.875 26.9091 22.6089 26.9091 19.8125V13.0625C26.9091 10.2661 24.4877 8 21.5 8C18.5123 8 16.0909 10.2661 16.0909 13.0625V19.8125C16.0909 22.6089 18.5123 24.875 21.5 24.875ZM32 19.7522C32 19.6196 31.8855 19.5112 31.7455 19.5112H29.8364C29.6964 19.5112 29.5818 19.6196 29.5818 19.7522C29.5818 23.98 25.9641 27.4062 21.5 27.4062C17.0359 27.4062 13.4182 23.98 13.4182 19.7522C13.4182 19.6196 13.3036 19.5112 13.1636 19.5112H11.2545C11.1145 19.5112 11 19.6196 11 19.7522C11 24.8358 15.0282 29.0305 20.2273 29.6241V32.7098H15.6041C15.1682 32.7098 14.8182 33.1407 14.8182 33.6741V34.7589C14.8182 34.8915 14.9073 35 15.0155 35H27.9845C28.0927 35 28.1818 34.8915 28.1818 34.7589V33.6741C28.1818 33.1407 27.8318 32.7098 27.3959 32.7098H22.6455V29.6392C27.905 29.0968 32 24.878 32 19.7522Z" fill="white"/>
</svg>
