<svg width="43" height="43" viewBox="0 0 43 43" fill="none" xmlns="http://www.w3.org/2000/svg">
<circle cx="21.5" cy="21.5" r="21.5" fill="#F18B00"/>
<path d="M12.05 18.2676C12.3982 17.741 12.7833 17.2552 13.2278 16.8156C13.955 16.0966 14.8012 15.5441 15.7426 15.1289C16.7741 14.6739 17.8574 14.4002 18.9759 14.2428C20.338 14.0514 21.7043 14.0286 23.0725 14.1366C24.5349 14.2519 25.9571 14.5458 27.2975 15.1494C28.8264 15.838 30.058 16.8574 30.9462 18.2829C30.9462 18.2359 30.9462 18.189 30.9462 18.142C30.9462 15.9374 30.9462 13.7331 30.9462 11.5284C30.9462 11.2892 31.0799 11.1059 31.3041 11.0315C31.5181 10.9606 31.7478 11.0145 31.8742 11.1976C31.9404 11.2935 31.9892 11.4219 31.9904 11.5361C31.9994 12.4795 31.9956 13.4229 31.9956 14.3664C31.9956 18.4484 31.9909 22.5301 32 26.6121C32.0015 27.336 31.7761 27.9784 31.3899 28.5778C30.8102 29.4774 29.9847 30.111 29.0331 30.5968C27.937 31.1566 26.7601 31.477 25.5472 31.686C23.9584 31.9596 22.3553 32.0283 20.7466 31.9904C19.1426 31.9525 17.5518 31.7939 16.0003 31.3705C14.9013 31.0706 13.8575 30.646 12.9391 29.9695C12.1326 29.3752 11.4948 28.6462 11.1772 27.6945C11.0783 27.3978 11.0079 27.0763 11.0073 26.7659C10.9974 21.6938 11.0003 16.6211 11.0006 11.5481C11.0006 11.1537 11.3632 10.8986 11.7225 11.0389C11.9283 11.1192 12.0497 11.306 12.0497 11.5447C12.0497 13.735 12.0497 15.9251 12.0497 18.1155C12.0497 18.1662 12.0497 18.2169 12.0497 18.2676H12.05ZM21.5123 20.4767C20.2244 20.4767 18.9365 20.475 17.6487 20.4784C17.4356 20.479 17.2205 20.487 17.0097 20.5163C14.8955 20.8102 13.4275 22.6876 13.6493 24.7134C13.8624 26.6608 15.5438 28.1564 17.5474 28.1575C20.1523 28.159 22.7572 28.159 25.3622 28.1558C25.5849 28.1558 25.8099 28.1436 26.0294 28.11C26.9215 27.9741 27.674 27.5795 28.3036 26.945C29.421 25.8191 29.7062 23.9616 28.9423 22.5825C28.1726 21.1926 26.9635 20.4927 25.347 20.4787C24.069 20.4679 22.7908 20.4764 21.5126 20.4764L21.5123 20.4767Z" fill="white"/>
<path d="M19.1359 24.3298C19.1327 25.1869 18.424 25.8564 17.5235 25.8533C16.674 25.8504 15.9843 25.1456 15.9869 24.2834C15.9895 23.4439 16.7082 22.777 17.6064 22.7813C18.4415 22.7853 19.1391 23.4915 19.1359 24.3298ZM18.0863 24.3269C18.0854 24.0362 17.8492 23.8058 17.5512 23.8053C17.2847 23.8047 17.0398 24.0405 17.0363 24.3008C17.0322 24.596 17.2759 24.8335 17.5786 24.8295C17.8454 24.8258 18.0871 24.5869 18.0863 24.3269Z" fill="white"/>
<path d="M27.0094 24.3267C27.0068 25.1849 26.2995 25.8558 25.4001 25.8533C24.5492 25.8507 23.8583 25.1476 23.8604 24.2865C23.8627 23.4453 24.5793 22.7776 25.4766 22.7813C26.3129 22.7847 27.012 23.4895 27.0094 24.3267ZM25.9597 24.3301C25.9612 24.0396 25.7262 23.8078 25.4279 23.8053C25.1617 23.8027 24.9153 24.0368 24.9097 24.2973C24.9036 24.5921 25.1456 24.8313 25.4486 24.8293C25.7151 24.8276 25.9583 24.5901 25.9594 24.3301H25.9597Z" fill="white"/>
</svg>
