<svg width="43" height="43" viewBox="0 0 43 43" fill="none" xmlns="http://www.w3.org/2000/svg">
<circle cx="21.5" cy="21.5" r="21.5" fill="#F18B00"/>
<path d="M22.2137 33H20.7957C20.7777 32.9964 20.7598 32.9914 20.7416 32.9894C20.4247 32.9545 20.1062 32.9302 19.7912 32.8829C19.1018 32.7796 18.4291 32.6058 17.7709 32.3765C16.6068 31.9711 15.5281 31.4049 14.5411 30.665C13.7493 30.0714 13.0358 29.3985 12.4339 28.61C11.4941 27.3785 10.8274 26.012 10.405 24.5242C10.2197 23.8712 10.0964 23.2065 10.0353 22.5302C10.0236 22.4007 10.0118 22.2713 10 22.1419C10 21.7107 10 21.2795 10 20.8483C10.0036 20.8302 10.0096 20.8122 10.0106 20.794C10.0452 20.1762 10.1363 19.566 10.2791 18.9645C10.6665 17.3334 11.3578 15.8449 12.3634 14.5008C13.2279 13.3451 14.2788 12.4002 15.5204 11.667C16.7141 10.9622 17.9883 10.4634 19.3494 10.1943C19.96 10.0739 20.5755 9.99325 21.2001 10.0021C21.538 10.0068 21.8764 9.99126 22.2135 10.0079C22.8206 10.0379 23.4208 10.1294 24.0126 10.2689C25.6608 10.6575 27.1681 11.3497 28.5187 12.3751C28.9565 12.7074 29.3814 13.0561 29.7588 13.4571C30.3821 14.1194 30.9085 14.8546 31.3684 15.638C31.641 16.1026 31.9004 16.575 32.1115 17.0705C32.4992 17.9812 32.7682 18.9275 32.9032 19.9089C32.9487 20.2388 32.9765 20.5718 32.9938 20.9044C33.0086 21.1898 32.9912 21.4765 32.9981 21.7624C33.012 22.3392 32.9454 22.9085 32.8431 23.474C32.6297 24.6537 32.2455 25.7768 31.6883 26.8375C30.9302 28.2804 29.9421 29.5382 28.6474 30.5417C27.4923 31.437 26.2075 32.0822 24.8138 32.5143C24.0759 32.7432 23.3224 32.8957 22.5525 32.9657C22.4394 32.976 22.3266 32.9884 22.2137 32.9999V33ZM21.3187 25.1862C21.3361 25.1983 21.3482 25.2062 21.3599 25.2148C22.2667 25.8877 23.174 26.56 24.0797 27.2344C24.2066 27.3288 24.3451 27.395 24.4963 27.4349C24.7786 27.5091 24.9872 27.4188 25.1121 27.1552C25.1673 27.0386 25.2073 26.9119 25.2349 26.7856C25.3861 26.0941 25.5314 25.4014 25.6785 24.7088C25.9292 23.5285 26.1796 22.3479 26.4305 21.1676C26.665 20.0642 26.9002 18.9609 27.135 17.8576C27.1681 17.7023 27.1818 17.5465 27.1513 17.3888C27.1073 17.1613 26.8932 16.8775 26.5604 16.9315C26.4791 16.9447 26.3974 16.9645 26.3207 16.994C24.608 17.6531 22.8959 18.3142 21.1837 18.9748C19.4137 19.6579 17.6433 20.3404 15.8738 21.0245C15.5863 21.1356 15.3002 21.2505 15.0164 21.3702C14.8975 21.4203 14.7919 21.495 14.7213 21.609C14.6064 21.7942 14.6456 21.9549 14.8406 22.0521C14.9284 22.0959 15.0259 22.1214 15.1204 22.1504C16.0481 22.435 16.9762 22.7183 17.9036 23.0035C17.9441 23.0159 17.9731 23.0108 18.0072 22.9887C18.1182 22.9163 18.2312 22.8468 18.3433 22.7763C20.4012 21.4812 22.4589 20.1861 24.5169 18.8912C24.5729 18.856 24.628 18.8186 24.6873 18.7895C24.7638 18.7519 24.8459 18.7417 24.9287 18.7705C24.9862 18.7904 25.0049 18.8367 24.9725 18.8882C24.9497 18.9244 24.9198 18.9575 24.8882 18.9869C24.721 19.1418 24.5521 19.2951 24.3839 19.4489C22.791 20.9044 21.198 22.3599 19.6063 23.8165C19.5849 23.836 19.5686 23.8708 19.5661 23.8998C19.5376 24.2384 19.5125 24.5774 19.4859 24.9162C19.4421 25.4739 19.398 26.0316 19.354 26.5894C19.3488 26.6566 19.3447 26.7239 19.3396 26.7977C19.3812 26.7931 19.4143 26.7922 19.4461 26.7854C19.6493 26.742 19.8174 26.6311 19.9644 26.4922C20.3078 26.1677 20.645 25.8364 20.9847 25.508C21.0949 25.4016 21.2052 25.2953 21.3187 25.1858V25.1862Z" fill="white"/>
</svg>
