<svg width="43" height="43" viewBox="0 0 43 43" fill="none" xmlns="http://www.w3.org/2000/svg">
<circle cx="21.5" cy="21.5" r="21.5" fill="#F18B00"/>
<path d="M21.4188 22.6148C19.874 22.608 18.3353 22.5103 16.8013 22.3207C15.2887 22.1339 13.7855 21.8907 12.3217 21.4503C11.8294 21.302 11.3515 21.0973 10.8772 20.8939C10.7068 20.8208 10.5529 20.6895 10.4144 20.5595C10.2536 20.4081 10.252 20.2469 10.4156 20.0913C10.564 19.9498 10.7332 19.8231 10.9115 19.7248C11.5851 19.3533 12.3094 19.1064 13.0441 18.9052C14.1941 18.5898 15.3526 18.3075 16.5086 18.0147C16.5676 17.9999 16.6417 18.0023 16.6971 18.0258C17.4957 18.367 18.3383 18.5146 19.1896 18.621C20.3766 18.7692 21.5667 18.8142 22.7597 18.7113C23.8688 18.6154 24.974 18.4918 26.0222 18.072C26.164 18.0153 26.292 18.0002 26.4414 18.0335C28.0265 18.3861 29.6083 18.752 31.1326 19.3318C31.5012 19.472 31.8647 19.6437 32.202 19.8502C32.7024 20.1569 32.6919 20.4359 32.1974 20.7611C31.7379 21.0634 31.223 21.2373 30.7047 21.3963C29.4647 21.7767 28.1951 22.0134 26.9156 22.2014C25.0929 22.4693 23.2611 22.6086 21.4197 22.6151L21.4188 22.6148Z" fill="white"/>
<path d="M16.7856 15.9889C16.8799 15.4147 16.9543 14.8503 17.0672 14.2943C17.2955 13.1714 17.5318 12.0497 17.7917 10.9339C17.8887 10.5175 18.0528 10.1167 18.2007 9.7145C18.2582 9.55792 18.3446 9.40935 18.4364 9.26972C18.6168 8.99508 18.787 8.9285 19.0769 9.07769C19.291 9.18773 19.4853 9.3514 19.6617 9.52062C19.8584 9.70895 20.0165 9.9389 20.2077 10.1343C20.3302 10.2595 20.4715 10.3735 20.6223 10.4598C20.9358 10.6392 21.2761 10.6623 21.5835 10.4691C21.8756 10.2854 22.1412 10.0554 22.4089 9.83348C22.6188 9.65933 22.8097 9.46144 23.0169 9.28359C23.1118 9.20221 23.2208 9.13317 23.3322 9.07738C23.5933 8.94699 23.817 8.99508 23.9757 9.24444C24.1001 9.43986 24.2019 9.65594 24.2814 9.87509C24.6283 10.8337 24.8547 11.8275 25.0637 12.8246C25.2727 13.8214 25.457 14.8235 25.659 15.8219C25.6879 15.9646 25.6512 16.0167 25.5169 16.0561C24.7821 16.2704 24.0341 16.4001 23.2741 16.4707C22.3183 16.5595 21.3619 16.5561 20.4058 16.4963C19.2296 16.4226 18.0636 16.2661 16.9085 16.0266C16.8748 16.0195 16.8426 16.0065 16.7862 15.9893L16.7856 15.9889Z" fill="white"/>
<path d="M27.3095 22.9279C27.5947 22.8885 27.8814 22.8487 28.168 22.8096C28.5947 22.751 29.0217 22.6943 29.4481 22.6327C29.5665 22.6157 29.6652 22.6271 29.7709 22.7026C31.1414 23.6856 32.5157 24.6633 33.8886 25.6423C33.9169 25.6623 33.9434 25.6851 34 25.7295C33.7684 25.7653 33.5652 25.7955 33.3619 25.8281C31.7488 26.0883 30.1437 26.3879 28.5866 26.907C28.1205 27.0623 27.6633 27.2423 27.215 27.5222C28.1015 27.9525 28.9663 28.3723 29.8541 28.8029C26.1318 29.6093 23.1603 31.4664 21.2978 35C21.2779 34.807 21.2547 34.656 21.2481 34.504C21.1966 33.2992 21.4824 32.1655 21.956 31.0746C22.5914 29.6117 23.5222 28.36 24.6078 27.2211C25.3022 26.4927 26.0538 25.8306 26.8391 25.208C26.9051 25.1556 26.9704 25.072 26.9885 24.9919C27.1029 24.4836 27.2119 23.9741 27.305 23.4612C27.3345 23.2981 27.3095 23.1246 27.3095 22.927V22.9279Z" fill="white"/>
<path d="M20.9695 32.4506C18.6677 31.2688 16.4276 29.9973 13.9656 29.1762C14.6994 28.5277 15.4351 27.8773 16.19 27.2103C16.1244 27.1856 16.0849 27.1687 16.044 27.156C14.5726 26.7008 13.0983 26.2535 11.583 25.9761C11.1217 25.8916 10.6492 25.8713 10.1816 25.8223C10.134 25.8174 10.0861 25.8164 10 25.8115C10.1554 25.6731 10.2816 25.5597 10.4086 25.4478C11.4349 24.5453 12.4623 23.644 13.4865 22.7387C13.5663 22.6681 13.6419 22.6422 13.7436 22.6579C14.3573 22.7535 14.9722 22.8438 15.5853 22.9431C15.6368 22.9514 15.7037 23.0032 15.7239 23.0519C16.9555 26.0217 18.8303 28.4793 21.3327 30.4366C21.4471 30.5263 21.473 30.6012 21.4327 30.742C21.2854 31.2583 21.1529 31.7789 21.0144 32.2977C21.0015 32.3467 20.9858 32.3948 20.9689 32.4509L20.9695 32.4506Z" fill="white"/>
<path d="M16.779 22.9649C17.7607 23.2507 18.7608 23.3136 19.7626 23.3268C21.0499 23.3441 22.3379 23.3453 23.6255 23.3283C24.4328 23.3179 25.2344 23.2235 26.0122 22.981C26.0306 22.9751 26.0502 22.9739 26.0842 22.968C26.1628 23.6184 26.0562 24.2173 25.5304 24.6195C24.7939 25.183 23.9637 25.318 23.0895 24.9737C22.7333 24.8335 22.464 24.5752 22.2632 24.2416C22.009 23.8197 21.6459 23.6622 21.1743 23.7627C20.9162 23.8175 20.7359 23.9784 20.6046 24.2031C20.2902 24.7416 19.821 25.0646 19.2227 25.1291C18.5403 25.2024 17.8796 25.085 17.3198 24.6353C16.8534 24.2605 16.6137 23.501 16.7787 22.9652L16.779 22.9649Z" fill="white"/>
</svg>
