<svg width="43" height="43" viewBox="0 0 43 43" fill="none" xmlns="http://www.w3.org/2000/svg">
<circle cx="21.5" cy="21.5" r="21.5" fill="#F18B00"/>
<path d="M31.625 15.3158H28.25C28.25 13.4921 26.7313 12 24.875 12H11.375C9.51875 12 8 13.4921 8 15.3158V23.0526C8 24.8763 9.51875 26.3684 11.375 26.3684V29.6842L14.75 26.3684C14.75 28.1921 16.2688 29.6842 18.125 29.6842H27.125L30.5 33V29.6842H31.625C33.4813 29.6842 35 28.1921 35 26.3684V18.6316C35 16.8079 33.4813 15.3158 31.625 15.3158ZM11.375 24.1579C10.7652 24.1579 10.25 23.6517 10.25 23.0526V15.3158C10.25 14.7167 10.7652 14.2105 11.375 14.2105H24.875C25.4848 14.2105 26 14.7167 26 15.3158V16.4211H18.6875C17.9418 16.4216 17.2267 16.7129 16.6994 17.231C16.1721 17.7491 15.8756 18.4516 15.875 19.1842V24.1579H11.375ZM32.75 26.3684C32.75 26.9675 32.2348 27.4737 31.625 27.4737H18.125C17.5153 27.4737 17 26.9675 17 26.3684V19.1842C17 18.2702 17.7571 17.5263 18.6875 17.5263H31.625C32.2348 17.5263 32.75 18.0325 32.75 18.6316V26.3684Z" fill="white"/>
</svg>
