<svg width="26" height="20" viewBox="0 0 26 20" fill="none" xmlns="http://www.w3.org/2000/svg">
<path d="M22.01 1.65872C20.3525 0.892108 18.5759 0.325479 16.718 0.00327775C16.7015 2.00896e-05 16.6844 0.00211944 16.669 0.0092855C16.6537 0.0164516 16.6409 0.0283298 16.6325 0.0432751C16.405 0.453248 16.1515 0.987658 15.9738 1.40985C14.0034 1.10791 12.0002 1.10791 10.0297 1.40985C9.83185 0.94195 9.6087 0.485717 9.36133 0.0432751C9.35295 0.0281458 9.34026 0.0159989 9.32497 0.00845533C9.30968 0.00091179 9.29251 -0.00166968 9.27575 0.00105557C7.41897 0.323257 5.64236 0.889886 3.98382 1.65761C3.96955 1.66375 3.95746 1.67422 3.94916 1.68761C0.577921 6.77061 -0.346136 11.7281 0.107768 16.6233C0.109031 16.6353 0.112659 16.6469 0.118433 16.6574C0.124206 16.6679 0.132003 16.6771 0.14135 16.6844C2.10905 18.1537 4.30376 19.2729 6.63358 19.9953C6.64982 20.0004 6.66719 20.0004 6.68342 19.9953C6.69966 19.9901 6.714 19.9801 6.72458 19.9664C7.22592 19.2788 7.67019 18.5492 8.0527 17.7854C8.05801 17.775 8.06107 17.7635 8.06168 17.7517C8.06228 17.74 8.06041 17.7282 8.0562 17.7173C8.05199 17.7063 8.04553 17.6964 8.03727 17.6882C8.029 17.6801 8.01912 17.6738 8.00829 17.6699C7.30848 17.3996 6.63042 17.0734 5.98035 16.6944C5.96867 16.6876 5.95882 16.6779 5.9517 16.6662C5.94458 16.6545 5.9404 16.6411 5.93954 16.6274C5.93868 16.6136 5.94117 16.5998 5.94678 16.5873C5.95239 16.5747 5.96095 16.5638 5.97168 16.5555C6.10818 16.4522 6.24467 16.3444 6.37467 16.2367C6.38637 16.227 6.40047 16.2208 6.41538 16.2188C6.4303 16.2169 6.44546 16.2192 6.45917 16.2255C10.7133 18.1854 15.3206 18.1854 19.5249 16.2255C19.5386 16.2188 19.5539 16.2162 19.5691 16.218C19.5842 16.2197 19.5985 16.2258 19.6105 16.2355C19.7404 16.3444 19.8759 16.4522 20.0134 16.5555C20.0243 16.5637 20.033 16.5744 20.0388 16.5869C20.0446 16.5993 20.0472 16.613 20.0466 16.6268C20.046 16.6405 20.042 16.6539 20.0351 16.6657C20.0282 16.6775 20.0185 16.6874 20.0069 16.6944C19.3591 17.0766 18.6853 17.3999 17.9779 17.6688C17.9671 17.6728 17.9572 17.6792 17.9489 17.6875C17.9406 17.6958 17.9342 17.7058 17.93 17.7168C17.9258 17.7278 17.9239 17.7397 17.9245 17.7515C17.9251 17.7633 17.9282 17.7749 17.9335 17.7854C18.3235 18.5487 18.7698 19.2753 19.2605 19.9653C19.2708 19.9795 19.285 19.99 19.3012 19.9956C19.3175 20.0012 19.3351 20.0015 19.3515 19.9964C21.6854 19.2761 23.8836 18.1563 25.8535 16.6844C25.8631 16.6775 25.8712 16.6686 25.8772 16.6582C25.8832 16.6479 25.8869 16.6364 25.8882 16.6244C26.4298 10.9648 24.9804 6.04732 22.0436 1.68983C22.0364 1.67567 22.0244 1.66463 22.01 1.65872ZM8.6886 13.6424C7.40814 13.6424 6.35192 12.4547 6.35192 10.9981C6.35192 9.54043 7.38756 8.35384 8.6886 8.35384C9.9994 8.35384 11.0459 9.55043 11.0253 10.9981C11.0253 12.4558 9.98965 13.6424 8.6886 13.6424ZM17.3279 13.6424C16.0464 13.6424 14.9913 12.4547 14.9913 10.9981C14.9913 9.54043 16.0258 8.35384 17.3279 8.35384C18.6387 8.35384 19.6852 9.55043 19.6646 10.9981C19.6646 12.4558 18.6398 13.6424 17.3279 13.6424Z" fill="#606060"/>
</svg>
