<svg width="43" height="43" viewBox="0 0 43 43" fill="none" xmlns="http://www.w3.org/2000/svg">
<circle cx="21.5" cy="21.5" r="21.5" fill="#F18B00"/>
<path d="M21.9488 35H21.0429C21.0068 34.9939 20.9709 34.9852 20.9345 34.9819C20.4452 34.9371 19.9535 34.9101 19.4672 34.8444C18.7959 34.754 18.1379 34.5941 17.4907 34.3925C16.3407 34.0342 15.2576 33.5317 14.2428 32.883C13.1159 32.1626 12.1186 31.2934 11.247 30.2785C10.5455 29.4618 9.95137 28.5738 9.46228 27.6158C9.04329 26.795 8.71292 25.9396 8.47244 25.0496C8.23104 24.1559 8.08213 23.248 8.02608 22.3232C7.98889 21.7101 7.99093 21.0982 8.0357 20.487C8.0812 19.8652 8.1724 19.2496 8.30392 18.6393C8.532 17.5804 8.8831 16.5652 9.35647 15.592C9.95896 14.3531 10.7355 13.2343 11.68 12.232C12.3981 11.47 13.195 10.8011 14.0691 10.2241C14.9712 9.62846 15.9304 9.14656 16.9487 8.78361C18.154 8.35425 19.3945 8.09822 20.6735 8.02404C21.3141 7.98686 21.9525 7.99259 22.5919 8.04273C23.1617 8.08731 23.7253 8.16926 24.2843 8.28543C25.3502 8.50705 26.3732 8.85613 27.3532 9.32878C28.5023 9.88282 29.5534 10.586 30.5025 11.4388C31.2443 12.1053 31.9075 12.8427 32.4872 13.6555C33.3886 14.9194 34.0546 16.2964 34.4813 17.7887C34.6458 18.3635 34.7821 18.9455 34.8518 19.5398C34.9058 20.0001 34.9388 20.4629 34.9819 20.9245C34.985 20.9576 34.9939 20.9903 35 21.0231V21.966C34.9939 21.9926 34.9843 22.0191 34.9821 22.0463C34.9504 22.429 34.9267 22.8125 34.8875 23.1945C34.8298 23.7561 34.7159 24.308 34.5762 24.8546C34.2828 26.0021 33.8428 27.0906 33.2615 28.1226C32.6851 29.146 31.9855 30.0765 31.1674 30.918C30.6366 31.4639 30.0623 31.9599 29.4472 32.409C28.4207 33.1588 27.3099 33.75 26.1168 34.1866C25.351 34.4669 24.5659 34.6798 23.7607 34.8072C23.3187 34.8772 22.8713 34.9138 22.426 34.9623C22.2675 34.9795 22.1078 34.9878 21.9488 35ZM21.5052 29.7126C23.4275 29.7126 25.35 29.713 27.2724 29.7121C27.4714 29.7121 27.6621 29.6667 27.8356 29.5676C28.3103 29.296 28.5364 28.8811 28.5364 28.3378C28.5364 26.1255 28.5364 23.9134 28.536 21.7011C28.536 21.6273 28.5376 21.5525 28.5278 21.4796C28.4366 20.7974 27.8917 20.3212 27.1993 20.3211C23.3975 20.3203 19.596 20.3205 15.7942 20.3218C15.6993 20.3218 15.6022 20.3275 15.5101 20.3479C14.8771 20.4877 14.4614 21.0051 14.4611 21.658C14.4596 23.898 14.4599 26.1379 14.462 28.3779C14.462 28.4872 14.4757 28.599 14.5001 28.7057C14.6366 29.3029 15.1549 29.7128 15.7659 29.7128C17.679 29.7128 19.5923 29.7128 21.5054 29.7128L21.5052 29.7126ZM19.7334 19.0278C19.7334 18.3069 19.7303 17.586 19.7358 16.8651C19.7369 16.7067 19.7527 16.545 19.7889 16.3913C19.9998 15.4943 20.8651 14.921 21.758 15.0587C22.6419 15.1948 23.2599 15.9312 23.2607 16.8264C23.2612 17.5597 23.2607 18.293 23.2607 19.0261C23.2607 19.0628 23.2607 19.0992 23.2607 19.1414H26.7714C26.7731 19.1103 26.7757 19.0833 26.7757 19.0563C26.7757 18.286 26.7751 17.5159 26.7757 16.7456C26.7761 16.3506 26.7278 15.9614 26.6345 15.5785C26.3536 14.4245 25.7533 13.4683 24.8363 12.7146C24 12.027 23.0366 11.6411 21.9608 11.5403C21.4218 11.4898 20.8859 11.5263 20.3574 11.6478C18.9913 11.9617 17.9102 12.6993 17.1211 13.8553C16.5127 14.7466 16.2208 15.7402 16.2182 16.8185C16.2165 17.5579 16.2178 18.2973 16.2178 19.0367C16.2178 19.07 16.2178 19.1033 16.2178 19.1419H19.7334V19.0278Z" fill="white"/>
<path d="M22.0901 27.3599H20.9137C20.9137 27.3194 20.9137 27.2833 20.9137 27.2471C20.9137 26.2949 20.9127 25.3428 20.9153 24.3906C20.9155 24.3124 20.8957 24.2641 20.8286 24.2184C20.4427 23.9563 20.2501 23.4751 20.3445 23.0262C20.4432 22.5561 20.8199 22.1848 21.2842 22.0997C21.9431 21.9789 22.595 22.4495 22.6647 23.1107C22.7137 23.5756 22.543 23.9544 22.158 24.2266C22.1049 24.2641 22.089 24.2998 22.089 24.3601C22.0905 25.3215 22.0901 26.2829 22.0901 27.2441V27.3599Z" fill="white"/>
<path d="M17.3945 25.0189C17.3945 25.7856 17.3943 26.5524 17.3945 27.3192C17.3945 27.5952 17.2774 27.7982 17.0223 27.9116C16.6613 28.0723 16.219 27.788 16.2186 27.3925C16.2171 25.8097 16.2175 24.2269 16.2186 22.6442C16.2188 22.3506 16.4711 22.1008 16.7806 22.0809C17.0623 22.0627 17.3377 22.2869 17.3816 22.5718C17.3899 22.6264 17.394 22.6821 17.394 22.7372C17.3947 23.4979 17.3945 24.2584 17.3945 25.0191V25.0189Z" fill="white"/>
<path d="M18.5656 17.9726H17.395C17.3917 17.9502 17.386 17.9301 17.386 17.9099C17.386 17.5249 17.381 17.1398 17.388 16.7548C17.4043 15.8635 17.6732 15.0548 18.208 14.3405C18.7171 13.6609 19.3777 13.1843 20.1816 12.9089C20.7328 12.7198 21.3005 12.6519 21.879 12.7089C22.7554 12.7953 23.5314 13.124 24.197 13.7054C24.8931 14.3135 25.3326 15.0733 25.5228 15.9751C25.5688 16.1932 25.5966 16.4183 25.6027 16.6412C25.6149 17.081 25.6064 17.5212 25.6064 17.9691H24.4284C24.4284 17.9376 24.4284 17.9055 24.4284 17.8731C24.4282 17.5096 24.4304 17.1461 24.4271 16.7826C24.4203 16.0193 24.1569 15.3559 23.6363 14.798C23.1483 14.2748 22.544 13.9692 21.8355 13.8891C20.5295 13.7417 19.3257 14.4465 18.7992 15.6543C18.6442 16.0097 18.57 16.3839 18.566 16.7709C18.5623 17.1344 18.565 17.4979 18.565 17.8614C18.565 17.8949 18.565 17.9284 18.565 17.9726H18.5656Z" fill="white"/>
</svg>
