<svg width="26" height="26" viewBox="0 0 26 26" fill="none" xmlns="http://www.w3.org/2000/svg">
<path d="M13 26C20.1797 26 26 20.1797 26 13C26 5.82029 20.1797 0 13 0C5.82031 0 0 5.82029 0 13C0 20.1797 5.82031 26 13 26Z" fill="#F18B00"/>
<path d="M13.0711 1.51187C19.4056 1.51187 24.5592 6.66551 24.5592 13C24.5592 19.3344 19.4056 24.4881 13.0711 24.4881C6.73668 24.4881 1.58303 19.3344 1.58303 13C1.58303 6.66551 6.73668 1.51187 13.0711 1.51187ZM13.0711 0.960083C6.42217 0.960083 1.03125 6.351 1.03125 13C1.03125 19.649 6.42217 25.0399 13.0711 25.0399C19.7201 25.0399 25.111 19.649 25.111 13C25.111 6.351 19.7201 0.960083 13.0711 0.960083Z" fill="white"/>
<path d="M17.7296 17.0667H17.7241C17.5089 17.0667 17.3379 17.2378 17.3379 17.4502V18.162C17.3379 18.3331 17.1972 18.4738 17.0261 18.4738L9.54669 18.4655C9.34254 18.4655 9.2708 18.311 9.40323 18.1538L12.4877 14.4265L11.1137 14.3878L14.3003 11.1378L12.8712 11.1434L16.6757 6.93878C16.7364 6.87256 16.6895 6.76221 16.5985 6.76221H9.62671C9.42255 6.76221 9.25976 6.90291 9.22665 7.085H9.21288V7.14845V9.86323C9.21288 10.0757 9.39772 10.2495 9.62671 10.2495H9.6322C9.86119 10.2495 10.046 10.0757 10.046 9.86323V7.7361C10.046 7.62851 10.1343 7.54022 10.2419 7.54022H14.5541C14.6728 7.54022 14.7335 7.68092 14.6562 7.76645L11.4034 11.3668L12.8326 11.3613L9.76739 14.6472H11.8559C11.8559 14.6472 8.76316 18.3386 8.57279 18.6255C8.38243 18.9125 8.49004 19.2435 8.86249 19.2435H17.7324C17.9476 19.2435 18.1186 19.0725 18.1186 18.86V17.4502C18.1186 17.2378 17.9448 17.0667 17.7324 17.0667H17.7296Z" fill="white"/>
<path d="M15.5876 10.2302L18.6418 6.80364C18.6418 6.80364 18.6417 6.77881 18.6307 6.77881L17.3699 6.78708C17.3699 6.78708 17.3616 6.78709 17.3588 6.7926L13.695 10.8454C13.695 10.8454 13.695 10.8703 13.7061 10.8703L15.0662 10.8648C15.0662 10.8648 15.0855 10.8813 15.0772 10.8896L12.0121 14.0182C12.0121 14.0182 12.0093 14.043 12.0204 14.043L13.2591 14.1506C13.2591 14.1506 13.2757 14.1672 13.2702 14.1755L9.9567 18.0159C9.94566 18.0297 9.96221 18.049 9.97876 18.0379L15.2704 13.6375C15.2704 13.6375 15.2759 13.6126 15.2621 13.6099L13.844 13.5547C13.844 13.5547 13.8247 13.5381 13.833 13.5299L16.9561 10.335C16.9561 10.335 16.9588 10.3102 16.945 10.3102L15.5987 10.255C15.5987 10.255 15.5794 10.2385 15.5876 10.2302Z" fill="white"/>
</svg>
