<svg width="26" height="26" viewBox="0 0 26 26" fill="none" xmlns="http://www.w3.org/2000/svg">
<circle cx="13" cy="13" r="13" fill="#F18B00"/>
<path d="M17.2404 10.0508L14.2504 7.02107C14.0921 6.8562 13.9027 6.72513 13.6934 6.63563C13.484 6.54612 13.259 6.5 13.0317 6.5C12.8044 6.5 12.5794 6.54612 12.37 6.63563C12.1607 6.72513 11.9712 6.8562 11.8129 7.02107L8.81483 10.0508L13.0154 12.1691L17.2404 10.0508ZM18.3877 11.2741L18.9808 11.8735C19.145 12.0329 19.2756 12.2241 19.3648 12.4357C19.454 12.6474 19.5 12.875 19.5 13.1051C19.5 13.3351 19.454 13.5628 19.3648 13.7744C19.2756 13.9861 19.145 14.1773 18.9808 14.3367L14.2028 19.2126C14.0895 19.3297 13.9577 19.4268 13.8128 19.5V13.5895L18.3877 11.2741ZM7.61233 11.2741L7.01921 11.8735C6.85504 12.0329 6.72443 12.2241 6.63521 12.4357C6.54599 12.6474 6.5 12.875 6.5 13.1051C6.5 13.3351 6.54599 13.5628 6.63521 13.7744C6.72443 13.9861 6.85504 14.1773 7.01921 14.3367L11.7978 19.2126C11.9115 19.3298 12.0431 19.4272 12.1878 19.5V13.5895L7.61233 11.2741Z" fill="white"/>
</svg>
