<svg width="43" height="43" viewBox="0 0 43 43" fill="none" xmlns="http://www.w3.org/2000/svg">
<circle cx="21.5" cy="21.5" r="21.5" fill="#F18B00"/>
<path d="M33 29.5426C32.8315 30.3111 32.2611 30.7225 31.6503 31.0869C30.9145 31.5257 30.1133 31.8086 29.2964 32.0439C28.1365 32.3783 26.9532 32.5936 25.7573 32.7433C24.1789 32.9404 22.5943 33.0181 21.005 32.9965C19.8902 32.9815 18.778 32.9165 17.6691 32.7923C16.4873 32.6598 15.3159 32.4675 14.1632 32.1684C13.2646 31.9353 12.3853 31.6445 11.56 31.2069C11.1528 30.991 10.7688 30.7394 10.4512 30.3964C10.2015 30.1267 10.017 29.8219 10.0011 29.4394C9.98571 29.0684 10.1389 28.7597 10.3688 28.4865C10.7318 28.0549 11.1988 27.7664 11.6897 27.5145C11.8976 27.4078 12.1122 27.3148 12.3239 27.2158C12.329 27.2237 12.3343 27.232 12.3393 27.24C12.2741 27.3024 12.2065 27.3623 12.1438 27.4275C11.7836 27.804 11.7833 28.2056 12.1457 28.5808C12.4107 28.855 12.7383 29.032 13.0788 29.1865C13.9048 29.561 14.7774 29.7754 15.6611 29.9467C17.0035 30.2069 18.3601 30.3404 19.7245 30.4066C20.9602 30.4665 22.1956 30.4658 23.4303 30.3999C25.0679 30.3127 26.6948 30.1356 28.291 29.7356C28.9898 29.5604 29.6801 29.3528 30.3081 28.9849C30.5189 28.8617 30.7232 28.7091 30.8914 28.5317C31.2218 28.183 31.2027 27.7944 30.8716 27.4438C30.8043 27.3728 30.7304 27.3081 30.6511 27.233C30.6752 27.233 30.6906 27.2288 30.7022 27.2336C31.2556 27.4683 31.79 27.7374 32.2602 28.1228C32.6185 28.4164 32.8969 28.7642 33 29.233V29.5432V29.5426Z" fill="white"/>
<path d="M21.7342 10C21.9087 10.0404 22.0872 10.0678 22.2567 10.1233C23.2584 10.4519 23.8914 11.4539 23.7977 12.551C23.7103 13.5756 22.8853 14.4546 21.8733 14.6017C20.6554 14.7791 19.5184 13.9565 19.2982 12.7389C19.0762 11.5102 19.8351 10.3398 21.0379 10.0583C21.1359 10.0354 21.2359 10.0194 21.3351 10C21.4683 10 21.6011 10 21.7342 10Z" fill="white"/>
<path d="M22.1777 29.3973C21.9675 27.9973 21.7574 26.5979 21.5475 25.1985C21.5406 25.1985 21.5337 25.1988 21.5268 25.1988C21.3173 26.5944 21.1081 27.9903 20.8976 29.3929H19.1516V29.2489C19.1516 27.0938 19.1513 24.9386 19.1532 22.7835C19.1532 22.6917 19.1303 22.6398 19.047 22.5873C18.3727 22.1628 17.998 21.5446 17.9861 20.7369C17.9689 19.5563 17.9727 18.3751 17.9843 17.1941C17.9955 16.0406 18.9396 15.0759 20.0747 15.0584C21.0053 15.0441 21.9365 15.0441 22.8671 15.0584C23.9866 15.0756 24.9294 16.011 24.9495 17.147C24.9711 18.3754 24.9745 19.6047 24.9451 20.8328C24.9266 21.6073 24.5301 22.1914 23.8823 22.5937C23.8056 22.6411 23.7771 22.687 23.7774 22.7784C23.7802 24.9297 23.7796 27.0807 23.7796 29.232C23.7796 29.283 23.7796 29.3343 23.7796 29.3973H22.1777Z" fill="white"/>
<path d="M27.0979 24.7794C26.9065 26.0536 26.7151 27.3279 26.5231 28.6081H25.0519C25.05 28.5629 25.0469 28.5241 25.0469 28.4852C25.0469 26.7001 25.0472 24.9147 25.045 23.1297C25.045 23.0472 25.0701 22.9908 25.1249 22.9316C25.6859 22.3245 25.9956 21.6048 26.0044 20.7707C26.0169 19.562 26.0126 18.3534 26.0057 17.1448C26.0025 16.5932 25.8437 16.0807 25.5696 15.6052C25.5518 15.5744 25.5336 15.5438 25.517 15.5126C25.5139 15.5068 25.5167 15.4976 25.5167 15.467C25.6649 15.453 25.8143 15.4275 25.964 15.4266C26.7696 15.4224 27.5752 15.4183 28.3809 15.4263C29.5122 15.4374 30.3708 16.3209 30.3739 17.4709C30.3767 18.5127 30.3783 19.5544 30.3733 20.5958C30.3695 21.3701 30.0322 21.9599 29.3841 22.3628C29.3074 22.4105 29.303 22.4659 29.3033 22.5395C29.3039 24.5077 29.3039 26.4756 29.3039 28.4438V28.6059H27.6996C27.5079 27.3288 27.3165 26.0539 27.1251 24.7787C27.1164 24.7787 27.1073 24.7787 27.0985 24.7787L27.0979 24.7794Z" fill="white"/>
<path d="M17.9085 28.6148C17.7716 28.6148 17.6435 28.6148 17.515 28.6148C17.1943 28.6148 16.8736 28.6126 16.5528 28.6164C16.4732 28.6174 16.4394 28.6015 16.426 28.5104C16.243 27.2689 16.0551 26.0285 15.8678 24.788C15.8662 24.7765 15.8618 24.7657 15.8502 24.7227C15.7979 25.0682 15.7497 25.3835 15.7024 25.6988C15.5605 26.645 15.4196 27.5916 15.2755 28.5374C15.2711 28.5658 15.2332 28.611 15.2106 28.611C14.6991 28.6152 14.1876 28.6142 13.6614 28.6142C13.6614 28.5581 13.6614 28.512 13.6614 28.4658C13.6614 26.4896 13.6608 24.5135 13.6633 22.5373C13.6633 22.4487 13.6401 22.4007 13.5615 22.3503C12.9253 21.9459 12.5961 21.357 12.5905 20.5949C12.583 19.5493 12.5827 18.5034 12.5905 17.4575C12.5977 16.4327 13.2918 15.617 14.2857 15.4508C14.3894 15.4336 14.4962 15.431 14.6014 15.431C15.3954 15.4294 16.1895 15.4282 16.9832 15.432C17.141 15.4326 17.2989 15.4552 17.4749 15.4693C17.4095 15.5887 17.3556 15.6798 17.3083 15.774C17.0725 16.2422 16.9578 16.7403 16.9578 17.2661C16.9581 18.3993 16.9569 19.5324 16.9581 20.6659C16.9591 21.549 17.2591 22.3112 17.8568 22.9535C17.8878 22.987 17.9135 23.0421 17.9138 23.087C17.9166 24.908 17.916 26.7291 17.9157 28.5505C17.9157 28.5661 17.9125 28.5817 17.9088 28.6155L17.9085 28.6148Z" fill="white"/>
<path d="M17.9423 12.9211C17.937 14.1027 17.0004 15.045 15.838 15.039C14.686 15.0326 13.751 14.0724 13.7598 12.9045C13.7685 11.7281 14.7135 10.7822 15.8725 10.7895C17.0161 10.7965 17.9476 11.7561 17.9423 12.9214V12.9211Z" fill="white"/>
<path d="M29.2046 12.9166C29.2053 14.0912 28.2737 15.0387 27.1179 15.039C25.9631 15.039 25.0262 14.0918 25.0234 12.9211C25.0206 11.7469 25.9624 10.7886 27.1186 10.7892C28.2687 10.7898 29.2037 11.7434 29.2046 12.9163V12.9166Z" fill="white"/>
</svg>
