<svg width="43" height="43" viewBox="0 0 43 43" fill="none" xmlns="http://www.w3.org/2000/svg">
<circle cx="21.5" cy="21.5" r="21.5" fill="#F18B00"/>
<path d="M33.9997 25.0549C33.58 24.5664 33.0587 24.188 32.5599 23.7851C32.5226 23.7551 32.5053 23.6829 32.505 23.6303C32.502 22.3069 32.5027 20.9835 32.5027 19.6601C32.5027 18.4404 32.5046 17.2205 32.5007 16.0009C32.5001 15.7863 32.4873 15.5698 32.4556 15.3578C32.3785 14.8397 32.0996 14.5743 31.5679 14.5083C31.358 14.4821 31.1452 14.4683 30.9338 14.4683C24.9794 14.4664 19.0247 14.4658 13.0703 14.4693C12.8147 14.4693 12.5562 14.492 12.3045 14.5354C11.8979 14.606 11.6403 14.8512 11.5688 15.2515C11.5269 15.4859 11.5021 15.726 11.5017 15.9638C11.4978 19.6827 11.4978 23.4017 11.4998 27.1209C11.5001 27.8463 11.7685 28.4427 12.4183 28.8376C12.7566 29.0433 13.1331 29.1192 13.5283 29.1192C16.2954 29.1192 19.0623 29.1192 21.8295 29.1192H21.9779C22.072 29.5803 22.1642 30.0311 22.259 30.4963C22.2191 30.4982 22.1727 30.502 22.1266 30.502C18.8943 30.502 15.662 30.503 12.4297 30.502C11.0592 30.5014 10.0008 29.4685 10.0005 28.1308C9.99984 23.8777 9.99984 19.6246 10.0005 15.3713C10.0008 14.1539 10.8601 13.1935 12.0992 13.0198C12.1185 13.0172 12.1365 13.0067 12.1551 13C18.7184 13 25.2814 13 31.8447 13C31.8673 13.0073 31.8895 13.0182 31.9127 13.0211C32.8736 13.1446 33.6588 13.8097 33.9147 14.7212C33.95 14.8473 33.9719 14.977 34 15.105V25.0549H33.9997Z" fill="white"/>
<path d="M33.9997 29.0972C33.9686 29.3009 33.9454 29.5062 33.9052 29.7083C33.6127 31.1757 32.8217 32.3222 31.5486 33.1447C30.5834 33.7682 29.5109 34.0374 28.3568 33.9959C25.9086 33.9077 23.7746 32.1275 23.3036 29.7833C22.8107 27.3284 24.1178 24.8984 26.4839 23.9224C29.6414 22.6201 33.1917 24.4364 33.8925 27.7096C33.9415 27.9382 33.9647 28.172 33.9997 28.4034V29.0972ZM28.2934 30.0803C28.2623 30.0541 28.2375 30.0343 28.2136 30.0135C27.7064 29.5691 27.1994 29.124 26.6915 28.6806C26.512 28.5238 26.3855 28.5244 26.2084 28.6777C26.0495 28.815 25.891 28.9529 25.7328 29.0908C25.5494 29.2505 25.5488 29.3616 25.7341 29.5241C26.5055 30.2003 27.2772 30.8762 28.0492 31.5515C28.2238 31.7041 28.3594 31.7035 28.5343 31.5515C28.7902 31.3289 29.0461 31.1061 29.3021 30.8832C30.4265 29.9047 31.5509 28.9264 32.6749 27.9478C32.8527 27.7933 32.8517 27.6793 32.6726 27.5219C32.5118 27.3808 32.35 27.2403 32.1882 27.1001C32.0206 26.9549 31.8846 26.9555 31.7136 27.1043C30.8998 27.8118 30.0862 28.52 29.2727 29.2278C28.9471 29.511 28.6219 29.7942 28.2934 30.0799V30.0803Z" fill="white"/>
<path d="M18.1396 22.3321C16.8897 22.1926 15.9352 21.6358 15.2985 20.6048C14.8471 19.874 14.7092 19.0761 14.853 18.2352C15.1371 16.5736 16.6363 15.347 18.3896 15.3371C20.1321 15.3272 21.6291 16.5315 21.9406 18.216C22.1262 19.2204 21.8955 20.1431 21.2594 20.9544C20.6253 21.7631 19.7709 22.206 18.7678 22.3184C19.0897 22.3851 19.4405 22.4343 19.7761 22.532C20.6374 22.7829 21.347 23.2771 21.9687 23.8997C22.3662 24.2979 22.7067 24.7397 23.0163 25.2056C23.0539 25.2621 23.0499 25.2994 23.015 25.3544C22.4793 26.1889 22.1733 27.0998 22.0697 28.0778C22.0677 28.0976 22.0635 28.117 22.0589 28.1365C22.0573 28.1439 22.0511 28.1502 22.0439 28.1617H12.3882C12.4666 27.8568 12.533 27.5589 12.6203 27.2671C12.9344 26.218 13.4008 25.2413 14.1035 24.3828C14.9759 23.3171 16.0879 22.6364 17.476 22.4113C17.6839 22.3774 17.8944 22.3611 18.1396 22.3327V22.3321Z" fill="white"/>
<path d="M26.7526 16.4204C27.8214 16.4204 28.8902 16.4214 29.9591 16.4194C30.1251 16.4194 30.2643 16.4692 30.368 16.596C30.4869 16.7416 30.5415 16.9015 30.4575 17.0842C30.3719 17.2706 30.229 17.3801 30.0172 17.3964C29.9849 17.399 29.9519 17.3977 29.9195 17.3977C27.8064 17.3977 25.6929 17.3964 23.5798 17.3996C23.3569 17.3999 23.1944 17.3156 23.083 17.1327C22.8888 16.8141 23.1032 16.4316 23.4847 16.4223C23.7537 16.4156 24.023 16.4204 24.2923 16.4204C25.1124 16.4204 25.9325 16.4204 26.7523 16.4204H26.7526Z" fill="white"/>
<path d="M26.7647 19.8386C25.708 19.8386 24.6512 19.8386 23.5945 19.8386C23.3046 19.8386 23.0745 19.6636 23.012 19.3906C23.0039 19.3545 23.0111 19.3111 23.0228 19.275C23.1166 18.9922 23.302 18.8619 23.6043 18.8619C25.7178 18.8619 27.8312 18.8622 29.9447 18.8613C30.1065 18.8613 30.2552 18.8903 30.3644 19.0158C30.4928 19.1633 30.5412 19.3248 30.4448 19.5113C30.3477 19.6994 30.2287 19.8414 29.9836 19.8405C28.9105 19.8363 27.8374 19.8386 26.7644 19.8386H26.7647Z" fill="white"/>
<path d="M24.4979 22.2781C24.1756 22.2781 23.8537 22.2794 23.5314 22.2781C23.2784 22.2769 23.0414 22.0719 23.0061 21.828C22.9761 21.6204 23.251 21.3069 23.4853 21.305C24.1622 21.2986 24.8392 21.2989 25.5161 21.3047C25.7504 21.3066 26.0018 21.577 25.9969 21.7992C25.9917 22.0307 25.7449 22.274 25.5014 22.2775C25.167 22.2823 24.8326 22.2788 24.4983 22.2788L24.4979 22.2781Z" fill="white"/>
</svg>
