<svg width="30" height="21" viewBox="0 0 30 21" fill="none" xmlns="http://www.w3.org/2000/svg">
<path d="M10.5 0C4.701 0 0 4.701 0 10.5C0 16.299 4.701 21 10.5 21H19.5C25.299 21 30 16.299 30 10.5C30 4.701 25.299 0 19.5 0H10.5ZM9.1875 6C9.705 6 10.125 6.42 10.125 6.9375V9.75H12.5625C12.8111 9.75 13.0496 9.84877 13.2254 10.0246C13.4012 10.2004 13.5 10.4389 13.5 10.6875C13.5 10.9361 13.4012 11.1746 13.2254 11.3504C13.0496 11.5262 12.8111 11.625 12.5625 11.625H10.125V14.0625C10.125 14.3111 10.0262 14.5496 9.85041 14.7254C9.6746 14.9012 9.43614 15 9.1875 15C8.93886 15 8.7004 14.9012 8.52459 14.7254C8.34877 14.5496 8.25 14.3111 8.25 14.0625V11.625H5.4375C5.18886 11.625 4.9504 11.5262 4.77459 11.3504C4.59877 11.1746 4.5 10.9361 4.5 10.6875C4.5 10.4389 4.59877 10.2004 4.77459 10.0246C4.9504 9.84877 5.18886 9.75 5.4375 9.75H8.25V6.9375C8.25 6.42 8.67 6 9.1875 6ZM21 13.125C21 13.6223 20.8025 14.0992 20.4508 14.4508C20.0992 14.8025 19.6223 15 19.125 15C18.6277 15 18.1508 14.8025 17.7992 14.4508C17.4475 14.0992 17.25 13.6223 17.25 13.125C17.25 12.6277 17.4475 12.1508 17.7992 11.7992C18.1508 11.4475 18.6277 11.25 19.125 11.25C19.6223 11.25 20.0992 11.4475 20.4508 11.7992C20.8025 12.1508 21 12.6277 21 13.125ZM22.125 9.75C21.6277 9.75 21.1508 9.55246 20.7992 9.20082C20.4475 8.84919 20.25 8.37228 20.25 7.875C20.25 7.37772 20.4475 6.90081 20.7992 6.54917C21.1508 6.19754 21.6277 6 22.125 6C22.6223 6 23.0992 6.19754 23.4508 6.54917C23.8025 6.90081 24 7.37772 24 7.875C24 8.37228 23.8025 8.84919 23.4508 9.20082C23.0992 9.55246 22.6223 9.75 22.125 9.75Z" fill="#656565"/>
</svg>
