<svg width="29" height="19" viewBox="0 0 29 19" fill="none" xmlns="http://www.w3.org/2000/svg">
<path d="M7.60817 0C7.7661 0 7.9237 0 8.08162 0C8.25849 0.019778 8.43568 0.0376724 8.61223 0.0599619C9.90213 0.223209 11.0654 0.709811 12.1351 1.43092C12.6509 1.77845 13.2106 1.98439 13.8416 1.9778C14.2933 1.97309 14.7452 1.97906 15.1969 1.97686C15.791 1.97403 16.3305 1.79195 16.8172 1.46106C17.7451 0.830049 18.7479 0.370445 19.8527 0.147864C20.1856 0.0809957 20.5255 0.0483462 20.8621 0C21.0513 0 21.2408 0 21.43 0C21.4869 0.00973204 21.5437 0.0185223 21.6003 0.02951C22.0109 0.107994 22.4335 0.149434 22.8302 0.272811C23.9078 0.607781 24.7716 1.26956 25.4984 2.11342C26.4232 3.1874 27.0722 4.42525 27.6123 5.72087C28.449 7.72849 28.8747 9.82622 28.9771 11.9946C29.0415 13.3605 28.9714 14.7161 28.7516 16.0651C28.659 16.6324 28.5264 17.1855 28.2652 17.7051C27.6158 18.9963 26.0593 19.2955 25.0259 18.6861C24.5038 18.3782 24.0234 18.0171 23.5683 17.6213C22.5023 16.6939 21.5355 15.6701 20.6145 14.6034C20.1828 14.1033 19.6395 13.8603 18.9823 13.86C16.9789 13.8597 14.9758 13.8616 12.9724 13.8622C11.9838 13.8625 10.9949 13.8594 10.0064 13.8631C9.36173 13.8656 8.82953 14.1096 8.39778 14.5924C7.85327 15.2011 7.30497 15.8073 6.7355 16.3925C5.94622 17.204 5.11998 17.9763 4.15382 18.5854C3.30547 19.1203 2.43911 19.1376 1.58287 18.6375C0.986557 18.2893 0.671347 17.7117 0.479947 17.0712C0.200428 16.136 0.105044 15.1697 0.040296 14.2022C-0.0370852 13.0598 0.000815805 11.9186 0.121151 10.7787C0.309709 8.99554 0.731357 7.27171 1.43442 5.62041C1.99693 4.29905 2.66525 3.03577 3.64278 1.96148C4.43049 1.09564 5.36696 0.452069 6.52357 0.174235C6.87826 0.0888441 7.24622 0.0568225 7.60817 0.000313937V0ZM9.03104 8.42826C9.10337 8.42826 9.15959 8.42826 9.21581 8.42826C9.73126 8.42826 10.2467 8.42826 10.7619 8.42826C11.0376 8.42826 11.0325 8.42606 11.1472 8.17303C11.403 7.60825 11.3929 7.06295 11.048 6.53396C10.999 6.45862 10.9463 6.43099 10.8572 6.43162C10.3314 6.43539 9.80548 6.43382 9.27961 6.43319C9.22402 6.43319 9.16812 6.42817 9.09926 6.42471C9.09926 6.35345 9.09863 6.29694 9.09926 6.24043C9.10463 5.70768 9.10937 5.17525 9.11569 4.6425C9.11663 4.56684 9.116 4.50499 9.02378 4.46952C8.43062 4.24128 7.83526 4.19105 7.22727 4.41332C7.12431 4.45099 7.09683 4.50217 7.09809 4.60576C7.10346 5.15421 7.10062 5.70266 7.10062 6.25142C7.10062 6.30699 7.10062 6.36255 7.10062 6.43319C7.02387 6.43319 6.96702 6.43319 6.91048 6.43319C6.35302 6.43319 5.79556 6.43131 5.2381 6.43633C5.1803 6.43696 5.0906 6.46364 5.06976 6.5054C4.76813 7.10376 4.76686 7.70715 5.06154 8.31053C5.10576 8.40094 5.17209 8.43171 5.27537 8.43046C5.79588 8.42512 6.3167 8.42794 6.83721 8.42794H7.01408C7.01408 8.99052 7.0226 9.53269 7.00934 10.0745C7.00492 10.2532 7.07409 10.3511 7.21748 10.4356C7.69377 10.7165 8.53201 10.6845 8.97198 10.3555C9.00767 10.3288 9.0282 10.2607 9.02883 10.2114C9.03357 9.83532 9.03136 9.45922 9.03136 9.08313C9.03136 8.87028 9.03136 8.65775 9.03136 8.42763L9.03104 8.42826ZM18.56 9.02348C18.5568 9.87268 19.2738 10.585 20.1338 10.5875C20.9856 10.59 21.6988 9.88712 21.7061 9.03792C21.7133 8.18433 21.003 7.47201 20.1408 7.46824C19.2823 7.46479 18.5631 8.17208 18.56 9.02348ZM24.0401 8.60343C24.8929 8.61285 25.6096 7.9178 25.6247 7.0664C25.6399 6.2307 24.9311 5.503 24.0926 5.49326C23.1965 5.4829 22.4872 6.16477 22.4786 7.04537C22.4704 7.89205 23.1738 8.5937 24.0398 8.60343H24.0401ZM20.1344 6.30165C20.9983 6.30385 21.6957 5.61884 21.7061 4.75771C21.7162 3.9104 21.0077 3.2009 20.1496 3.1987C19.2671 3.19619 18.5562 3.89376 18.5597 4.75897C18.5631 5.60754 19.269 6.29914 20.1344 6.30134V6.30165Z" fill="#494949"/>
</svg>
