<svg width="43" height="43" viewBox="0 0 43 43" fill="none" xmlns="http://www.w3.org/2000/svg">
<circle cx="21.5" cy="21.5" r="21.5" fill="#F18B00"/>
<path d="M16.934 27.9389V30.4686H14.4121V33H10.0032C10.0032 32.9215 10.0032 32.8528 10.0032 32.7844C10.0032 31.4772 10.0053 30.1696 10 28.8623C9.99931 28.7235 10.0368 28.6253 10.136 28.5261C13.0046 25.6585 15.8694 22.7874 18.7387 19.9205C18.8354 19.8238 18.8547 19.7439 18.8176 19.6166C18.5652 18.7493 18.4158 17.8669 18.4649 16.9593C18.59 14.6435 19.5755 12.7698 21.4411 11.4043C25.6608 8.31624 31.6616 10.5791 32.8181 15.6731C33.733 19.7032 31.1035 23.6905 27.029 24.441C25.7954 24.6682 24.5779 24.5665 23.3825 24.196C23.2542 24.1564 23.1771 24.17 23.0803 24.2679C21.9095 25.4492 20.7323 26.624 19.5604 27.8047C19.4619 27.9042 19.3634 27.9438 19.2238 27.9424C18.5294 27.9354 17.8349 27.9389 17.1405 27.9389C17.0781 27.9389 17.016 27.9389 16.9337 27.9389H16.934ZM30.2765 15.1778C30.28 13.7745 29.2378 12.7189 27.8458 12.7161C26.4478 12.7133 25.3863 13.7643 25.3849 15.1522C25.3835 16.5587 26.4341 17.6142 27.8374 17.617C29.2189 17.6198 30.273 16.5653 30.2765 15.1781V15.1778Z" fill="white"/>
</svg>
