<svg width="77" height="24" viewBox="0 0 77 24" fill="none" xmlns="http://www.w3.org/2000/svg">
<path d="M15.9583 5.5C15.9583 8.53757 13.5023 11 10.4726 11C7.44299 11 4.98697 8.53757 4.98697 5.5C4.98697 2.46243 7.44299 0 10.4726 0C13.5023 0 15.9583 2.46243 15.9583 5.5Z" fill="#606060"/>
<path d="M0 19.5C0 15.9101 2.90257 13 6.48306 13H13.4648C17.0453 13 19.9479 15.9101 19.9479 19.5V24H0V19.5Z" fill="#606060"/>
<path d="M32.9851 18V5.15039H35.089V16.207H40.5328V18H32.9851Z" fill="#606060"/>
<path d="M51.1311 13.1133C51.1311 13.9219 51.0259 14.6396 50.8155 15.2666C50.6051 15.8936 50.2983 16.4238 49.895 16.8574C49.4918 17.2852 49.0067 17.6133 48.4399 17.8418C47.873 18.0645 47.233 18.1758 46.5201 18.1758C45.8538 18.1758 45.2431 18.0645 44.6879 17.8418C44.1327 17.6133 43.6506 17.2852 43.2415 16.8574C42.8383 16.4238 42.5256 15.8936 42.3035 15.2666C42.0815 14.6396 41.9704 13.9219 41.9704 13.1133C41.9704 12.041 42.1545 11.1328 42.5227 10.3887C42.8967 9.63867 43.4285 9.06738 44.1181 8.6748C44.8077 8.28223 45.6288 8.08594 46.5814 8.08594C47.4756 8.08594 48.2645 8.28223 48.9483 8.6748C49.632 9.06738 50.1668 9.63867 50.5525 10.3887C50.9382 11.1387 51.1311 12.0469 51.1311 13.1133ZM44.0918 13.1133C44.0918 13.8223 44.1766 14.4287 44.3461 14.9326C44.5214 15.4365 44.7902 15.8232 45.1525 16.0928C45.5149 16.3564 45.9824 16.4883 46.5551 16.4883C47.1278 16.4883 47.5954 16.3564 47.9577 16.0928C48.32 15.8232 48.586 15.4365 48.7554 14.9326C48.9249 14.4287 49.0097 13.8223 49.0097 13.1133C49.0097 12.4043 48.9249 11.8037 48.7554 11.3115C48.586 10.8135 48.32 10.4355 47.9577 10.1777C47.5954 9.91406 47.1249 9.78223 46.5464 9.78223C45.6931 9.78223 45.0707 10.0693 44.6792 10.6436C44.2876 11.2178 44.0918 12.041 44.0918 13.1133Z" fill="#606060"/>
<path d="M56.268 22.3242C54.9531 22.3242 53.945 22.0869 53.2437 21.6123C52.5424 21.1377 52.1918 20.4727 52.1918 19.6172C52.1918 19.0195 52.3788 18.5127 52.7528 18.0967C53.1268 17.6865 53.6616 17.4023 54.357 17.2441C54.094 17.127 53.8661 16.9453 53.6732 16.6992C53.4862 16.4473 53.3927 16.1689 53.3927 15.8643C53.3927 15.501 53.495 15.1904 53.6995 14.9326C53.9041 14.6748 54.2109 14.4258 54.62 14.1855C54.1116 13.9688 53.7025 13.6172 53.3927 13.1309C53.0888 12.6387 52.9369 12.0615 52.9369 11.3994C52.9369 10.6963 53.0859 10.0986 53.384 9.60645C53.682 9.1084 54.1174 8.73047 54.6901 8.47266C55.2628 8.20898 55.9554 8.07715 56.7677 8.07715C56.943 8.07715 57.133 8.08887 57.3375 8.1123C57.5479 8.12988 57.7407 8.15332 57.9161 8.18262C58.0972 8.20605 58.2346 8.23242 58.3281 8.26172H61.6855V9.41309L60.0375 9.7207C60.1953 9.94336 60.3209 10.1982 60.4144 10.4854C60.5079 10.7666 60.5547 11.0742 60.5547 11.4082C60.5547 12.416 60.207 13.21 59.5115 13.79C58.8219 14.3643 57.8693 14.6514 56.6537 14.6514C56.3615 14.6396 56.0781 14.6162 55.8034 14.5811C55.593 14.71 55.4323 14.8535 55.3213 15.0117C55.2103 15.1641 55.1547 15.3369 55.1547 15.5303C55.1547 15.6885 55.2103 15.8174 55.3213 15.917C55.4323 16.0107 55.596 16.0811 55.8122 16.1279C56.0343 16.1748 56.3031 16.1982 56.6187 16.1982H58.293C59.3566 16.1982 60.169 16.4238 60.73 16.875C61.291 17.3262 61.5716 17.9883 61.5716 18.8613C61.5716 19.9688 61.1157 20.8213 60.204 21.4189C59.2924 22.0225 57.9804 22.3242 56.268 22.3242ZM56.3469 20.874C57.0658 20.874 57.6706 20.8037 58.1615 20.6631C58.6524 20.5225 59.0235 20.3203 59.2748 20.0566C59.5261 19.7988 59.6518 19.4912 59.6518 19.1338C59.6518 18.8174 59.5729 18.5742 59.4151 18.4043C59.2573 18.2344 59.0206 18.1172 58.705 18.0527C58.3894 17.9883 57.9979 17.9561 57.5304 17.9561H56.005C55.6252 17.9561 55.2891 18.0146 54.9969 18.1318C54.7047 18.2549 54.4768 18.4307 54.3132 18.6592C54.1554 18.8877 54.0765 19.1631 54.0765 19.4854C54.0765 19.9307 54.2723 20.2734 54.6638 20.5137C55.0612 20.7539 55.6223 20.874 56.3469 20.874ZM56.7502 13.2979C57.3521 13.2979 57.7992 13.1338 58.0914 12.8057C58.3836 12.4717 58.5297 12.0029 58.5297 11.3994C58.5297 10.7432 58.3778 10.251 58.0739 9.92285C57.7758 9.59473 57.3317 9.43066 56.7414 9.43066C56.1628 9.43066 55.7216 9.59766 55.4177 9.93164C55.1197 10.2656 54.9706 10.7607 54.9706 11.417C54.9706 12.0088 55.1197 12.4717 55.4177 12.8057C55.7216 13.1338 56.1658 13.2979 56.7502 13.2979Z" fill="#606060"/>
<path d="M65.5163 8.27051V18H63.4563V8.27051H65.5163ZM64.4995 4.54395C64.815 4.54395 65.0868 4.62891 65.3147 4.79883C65.5485 4.96875 65.6654 5.26172 65.6654 5.67773C65.6654 6.08789 65.5485 6.38086 65.3147 6.55664C65.0868 6.72656 64.815 6.81152 64.4995 6.81152C64.1722 6.81152 63.8946 6.72656 63.6667 6.55664C63.4446 6.38086 63.3336 6.08789 63.3336 5.67773C63.3336 5.26172 63.4446 4.96875 63.6667 4.79883C63.8946 4.62891 64.1722 4.54395 64.4995 4.54395Z" fill="#606060"/>
<path d="M73.5286 8.08594C74.6215 8.08594 75.4718 8.37012 76.0796 8.93848C76.6932 9.50098 77 10.4062 77 11.6543V18H74.94V12.041C74.94 11.2852 74.7851 10.7197 74.4753 10.3447C74.1656 9.96387 73.6864 9.77344 73.0377 9.77344C72.0968 9.77344 71.4423 10.0635 71.0741 10.6436C70.7117 11.2236 70.5306 12.0645 70.5306 13.166V18H68.4705V8.27051H70.0747L70.364 9.58887H70.478C70.6884 9.24902 70.9484 8.9707 71.2582 8.75391C71.5737 8.53125 71.9244 8.36426 72.3101 8.25293C72.7017 8.1416 73.1078 8.08594 73.5286 8.08594Z" fill="#606060"/>
</svg>
