<svg width="19" height="22" viewBox="0 0 19 22" fill="none" xmlns="http://www.w3.org/2000/svg">
<path d="M9.5 12.5714C8.10025 12.5714 6.75782 12.0196 5.76805 11.0372C4.77827 10.0549 4.22222 8.72256 4.22222 7.33333H6.33333C6.33333 8.16687 6.66696 8.96627 7.26083 9.55567C7.85469 10.1451 8.66015 10.4762 9.5 10.4762C10.3399 10.4762 11.1453 10.1451 11.7392 9.55567C12.333 8.96627 12.6667 8.16687 12.6667 7.33333H14.7778C14.7778 8.72256 14.2217 10.0549 13.232 11.0372C12.2422 12.0196 10.8998 12.5714 9.5 12.5714ZM9.5 2.09524C10.3399 2.09524 11.1453 2.42636 11.7392 3.01576C12.333 3.60516 12.6667 4.40456 12.6667 5.2381H6.33333C6.33333 4.40456 6.66696 3.60516 7.26083 3.01576C7.85469 2.42636 8.66015 2.09524 9.5 2.09524ZM16.8889 5.2381H14.7778C14.7778 4.55022 14.6413 3.86908 14.376 3.23356C14.1108 2.59805 13.722 2.0206 13.232 1.5342C12.7419 1.0478 12.16 0.661965 11.5197 0.398726C10.8794 0.135487 10.1931 0 9.5 0C8.10025 0 6.75782 0.551869 5.76805 1.5342C4.77827 2.51654 4.22222 3.84887 4.22222 5.2381H2.11111C0.939444 5.2381 0 6.17048 0 7.33333V19.9048C0 20.4605 0.22242 20.9934 0.61833 21.3863C1.01424 21.7793 1.55121 22 2.11111 22H16.8889C17.4488 22 17.9858 21.7793 18.3817 21.3863C18.7776 20.9934 19 20.4605 19 19.9048V7.33333C19 6.77764 18.7776 6.24471 18.3817 5.85178C17.9858 5.45884 17.4488 5.2381 16.8889 5.2381Z" fill="#656565"/>
</svg>
