<svg width="23" height="26" viewBox="0 0 23 26" fill="none" xmlns="http://www.w3.org/2000/svg">
<path d="M1.35127e-05 11.1078C1.35127e-05 4.72315 5.02189 0 11.5005 0C17.9791 0 23 4.7241 23 11.1078C23 17.4916 17.9781 22.2147 11.4995 22.2147C10.3399 22.2147 9.2186 22.062 8.17397 21.7757C7.97008 21.7211 7.75351 21.7379 7.56062 21.8235L5.2701 22.8255C5.13203 22.8867 4.98093 22.9131 4.83018 22.9024C4.67943 22.8916 4.53366 22.844 4.40577 22.7638C4.27787 22.6836 4.17178 22.5733 4.09687 22.4426C4.02197 22.3119 3.98056 22.1648 3.9763 22.0143L3.90922 19.972C3.90402 19.8489 3.87422 19.7282 3.82155 19.6167C3.76889 19.5053 3.69443 19.4054 3.60254 19.323C2.4502 18.2875 1.53291 17.0192 0.91185 15.6028C0.290793 14.1863 -0.0197395 12.6542 0.000971885 11.1088L1.35127e-05 11.1078ZM7.97367 9.01779L4.6002 14.3622C4.26477 14.868 4.90688 15.4493 5.38607 15.078L9.0183 12.339C9.26748 12.1481 9.59332 12.1481 9.85209 12.339L12.5355 14.3431C13.3406 14.9444 14.4906 14.7249 15.0273 13.885L18.4008 8.54061C18.7362 8.03479 18.0941 7.46218 17.6149 7.82483L13.9827 10.5639C13.7431 10.7547 13.4076 10.7547 13.1585 10.5639L10.475 8.55969C10.2842 8.41613 10.0655 8.31366 9.83275 8.25877C9.60003 8.20388 9.35839 8.19779 9.12317 8.24086C8.88795 8.28394 8.6643 8.37525 8.46641 8.509C8.26852 8.64275 8.10073 8.81601 7.97367 9.01779Z" fill="#595858"/>
<path d="M3.73242 19.1907L4.66485 17.6431L8.39458 21.3573L3.73242 26.0002V19.1907Z" fill="#595858"/>
<rect x="3.73242" y="6.19092" width="16.1622" height="9.28569" fill="#595858"/>
<ellipse cx="7.14878" cy="11.4519" rx="1.55405" ry="1.54762" fill="#0E0D0D"/>
<ellipse cx="11.4984" cy="11.4519" rx="1.55405" ry="1.54762" fill="#0E0D0D"/>
<ellipse cx="15.8529" cy="11.4519" rx="1.55405" ry="1.54762" fill="#0E0D0D"/>
</svg>
