<svg width="29" height="22" viewBox="0 0 29 22" fill="none" xmlns="http://www.w3.org/2000/svg">
<path d="M5.92507 0C7.23266 0.0103355 8.54884 0.132065 9.82683 0.521084C10.3271 0.673246 10.8106 0.863879 11.233 1.17366C11.5012 1.37032 11.7268 1.59856 11.7881 1.93964C11.8118 2.07199 11.7836 2.18137 11.6919 2.28387C11.4234 2.58389 11.0791 2.77624 10.7132 2.93702C9.92541 3.28326 9.09118 3.46786 8.24037 3.5893C6.91117 3.77908 5.57693 3.80262 4.24151 3.67084C3.13463 3.56146 2.0461 3.36738 1.02655 2.90802C0.702983 2.76217 0.403986 2.58188 0.150579 2.3321C-0.00868912 2.17506 -0.0332602 2.00596 0.0377886 1.80757C0.139625 1.52306 0.348331 1.32381 0.590489 1.1527C1.00968 0.856128 1.48363 0.669226 1.97446 0.520222C3.25275 0.132639 4.56863 0.00861295 5.92507 0Z" fill="#F18B00"/>
<path d="M15.908 11.8572C14.2896 11.8442 12.9198 11.7156 11.5909 11.3062C11.082 11.1495 10.5906 10.9534 10.164 10.6321C10.0903 10.5767 10.0261 10.5095 9.95561 10.4501C9.76378 10.2885 9.75371 10.0932 9.83778 9.87762C9.93192 9.63588 10.1075 9.45702 10.3126 9.30371C10.8091 8.93221 11.3849 8.71975 11.9799 8.55869C13.5453 8.13493 15.1439 8.0422 16.7591 8.14067C17.776 8.20269 18.7772 8.35112 19.7467 8.66664C20.1872 8.8099 20.612 8.98704 20.9904 9.25462C21.1994 9.40247 21.3939 9.56928 21.4966 9.8047C21.6523 10.1624 21.6061 10.283 21.3734 10.4978C20.9936 10.8483 20.5265 11.0519 20.0425 11.2215C19.1091 11.5491 18.1392 11.711 17.154 11.7906C16.6629 11.8302 16.1697 11.844 15.9083 11.8575L15.908 11.8572Z" fill="#F18B00"/>
<path d="M23.1417 2.72514C24.4105 2.73346 25.6974 2.8529 26.9499 3.2201C27.4659 3.3714 27.9647 3.5626 28.4052 3.87267C28.6435 4.04034 28.8504 4.23499 28.9549 4.51233C29.0366 4.72937 29.0138 4.91484 28.8318 5.08537C28.513 5.38367 28.1337 5.58119 27.7305 5.74139C26.8569 6.08821 25.9404 6.26449 25.0079 6.37014C23.9516 6.48986 22.8921 6.51053 21.832 6.42727C20.594 6.32995 19.3755 6.14161 18.2343 5.63201C17.9104 5.48731 17.6111 5.30701 17.3583 5.05638C17.1999 4.89933 17.1762 4.72851 17.2461 4.53099C17.3503 4.23556 17.5703 4.03287 17.8225 3.85918C18.295 3.53418 18.829 3.33953 19.3802 3.18564C20.5984 2.84572 21.8462 2.73059 23.142 2.72456L23.1417 2.72514Z" fill="#F18B00"/>
<path d="M21.5496 13.102C21.5496 13.5117 21.5546 13.9033 21.5446 14.2943C21.5428 14.3601 21.4862 14.4339 21.4362 14.4878C21.181 14.7637 20.8542 14.9415 20.512 15.0928C19.7207 15.4427 18.882 15.6285 18.0267 15.7499C16.6141 15.9503 15.1969 15.9658 13.7798 15.8051C12.7588 15.6891 11.7558 15.495 10.8159 15.0695C10.4749 14.915 10.148 14.7359 9.90706 14.4459C9.85939 14.3885 9.82742 14.3024 9.82594 14.2286C9.81795 13.8568 9.82209 13.4844 9.82209 13.0862C9.9109 13.1439 9.98136 13.1913 10.0533 13.2361C10.6833 13.628 11.3819 13.8554 12.1022 14.0259C13.4133 14.336 14.7473 14.4353 16.093 14.4057C17.4492 14.3762 18.7852 14.218 20.0783 13.8C20.5804 13.6377 21.0602 13.4296 21.4898 13.1238C21.5004 13.1161 21.5152 13.1141 21.5493 13.1017L21.5496 13.102Z" fill="#F18B00"/>
<path d="M21.5493 19.177C21.5493 19.5973 21.5531 19.9889 21.5451 20.3805C21.544 20.4385 21.4969 20.5037 21.4546 20.5519C21.2325 20.804 20.946 20.9725 20.6434 21.1164C19.8838 21.4775 19.0723 21.6713 18.2429 21.802C16.7434 22.0382 15.2381 22.0595 13.7313 21.8849C12.7348 21.7695 11.7561 21.5754 10.8372 21.1655C10.4911 21.011 10.1584 20.8304 9.91239 20.5382C9.86176 20.4779 9.82802 20.3863 9.82624 20.3085C9.81736 19.9378 9.82239 19.5666 9.82239 19.1879C10.0566 19.3194 10.2703 19.4546 10.4971 19.564C11.3174 19.9591 12.1963 20.1718 13.0954 20.3047C15.0782 20.5982 17.056 20.5749 19.022 20.1678C19.7861 20.0096 20.5277 19.7851 21.2044 19.3932C21.3131 19.3303 21.4173 19.2603 21.5496 19.177H21.5493Z" fill="#F18B00"/>
<path d="M21.5484 11.0567C21.5484 11.4868 21.5514 11.8864 21.5446 12.2861C21.5437 12.3352 21.4978 12.3892 21.4611 12.4314C21.2331 12.692 20.9377 12.8643 20.6259 13.0113C19.8793 13.3633 19.0821 13.5539 18.268 13.6843C16.9379 13.8973 15.5998 13.9381 14.2582 13.8238C13.1057 13.7256 11.9719 13.537 10.9032 13.0808C10.5681 12.9378 10.2519 12.7635 9.98758 12.5117C9.87479 12.4044 9.80966 12.2892 9.81736 12.1222C9.83275 11.7756 9.82209 11.4282 9.82209 11.0633C9.98876 11.1638 10.1335 11.2603 10.2866 11.3424C11.072 11.7641 11.9251 11.9918 12.8017 12.1394C14.9737 12.5054 17.1389 12.4807 19.2899 11.9921C20.0848 11.8115 20.8486 11.5488 21.5487 11.0567H21.5484Z" fill="#F18B00"/>
<path d="M21.5499 17.1493C21.5499 17.4788 21.528 17.7892 21.5564 18.0952C21.5827 18.38 21.4596 18.5641 21.2444 18.7263C20.7527 19.0969 20.1854 19.3122 19.5969 19.4779C18.0851 19.9034 16.5365 20.0116 14.9717 19.9533C14.0042 19.9172 13.0465 19.8035 12.1078 19.566C11.4574 19.4015 10.8242 19.1948 10.2641 18.8196C10.2114 18.7843 10.1616 18.7449 10.1107 18.7073C9.90765 18.5575 9.79308 18.3803 9.81617 18.1116C9.84282 17.7998 9.82239 17.4843 9.82239 17.1441C9.90972 17.2004 9.97663 17.2449 10.0444 17.2873C10.699 17.6976 11.4278 17.9287 12.178 18.101C13.4713 18.3978 14.786 18.4969 16.1117 18.4653C17.3426 18.4357 18.5593 18.2994 19.7446 17.9609C20.3616 17.7846 20.9554 17.5575 21.4812 17.1877C21.4957 17.1774 21.5126 17.1702 21.5502 17.1495L21.5499 17.1493Z" fill="#F18B00"/>
<path d="M11.7676 5.01819C11.7676 5.40147 11.7742 5.78876 11.762 6.1752C11.7597 6.24927 11.6972 6.33253 11.6406 6.39253C11.3766 6.6736 11.0394 6.85361 10.6865 7.00606C9.86916 7.35919 9.00444 7.54265 8.12344 7.66237C7.0204 7.81252 5.91234 7.84669 4.80191 7.77319C3.58253 7.69251 2.38151 7.51509 1.24236 7.05889C0.848929 6.90127 0.475627 6.70863 0.172189 6.40861C0.0777536 6.31502 0.0297956 6.21482 0.0342362 6.07787C0.0443014 5.76752 0.0371965 5.45659 0.0377886 5.14595C0.0377886 5.1003 0.0422292 5.05494 0.0443014 5.01819C0.348627 5.17581 0.638447 5.34778 0.945733 5.481C1.76161 5.83441 2.62633 6.02017 3.50704 6.14477C4.60919 6.30066 5.71607 6.34631 6.82739 6.28487C8.18205 6.20994 9.51658 6.02706 10.7783 5.51229C11.1155 5.37477 11.4311 5.18787 11.7674 5.01819H11.7676Z" fill="#F18B00"/>
<path d="M0.0374926 2.96199C1.22016 3.73572 2.53782 3.99641 3.88449 4.16407C4.91499 4.29241 5.95023 4.3125 6.98636 4.24762C8.2759 4.16695 9.5456 3.98177 10.7478 3.49715C11.0953 3.35704 11.4207 3.16497 11.7602 2.99472C11.7617 3.01367 11.7676 3.05358 11.7676 3.09349C11.7682 3.41848 11.7629 3.74376 11.7709 4.06847C11.7739 4.18389 11.7339 4.26944 11.6572 4.35012C11.3772 4.64554 11.024 4.83388 10.6522 4.99207C9.86532 5.32711 9.03464 5.5054 8.18857 5.62483C7.02692 5.78876 5.85935 5.81862 4.69 5.73623C3.50082 5.65239 2.33 5.47095 1.22075 5.02106C0.832647 4.86373 0.464377 4.67195 0.166565 4.37337C0.0762734 4.28293 0.0312758 4.18647 0.0345322 4.05498C0.0437094 3.69783 0.0377886 3.34039 0.0377886 2.96142L0.0374926 2.96199Z" fill="#F18B00"/>
<path d="M9.82209 15.1146C10.8052 15.7829 11.9053 16.0514 13.0329 16.2371C14.2878 16.4438 15.5531 16.4883 16.8219 16.4057C18.0904 16.3233 19.3409 16.1398 20.5238 15.6615C20.8717 15.5208 21.1979 15.3308 21.5395 15.1608C21.5407 15.1694 21.5493 15.2033 21.5493 15.2375C21.5502 15.5814 21.5549 15.9256 21.546 16.2696C21.5443 16.3431 21.5099 16.4292 21.4611 16.4855C21.1878 16.8013 20.8213 16.9902 20.4409 17.1524C19.6499 17.4895 18.8145 17.6683 17.9637 17.7875C16.8121 17.9485 15.6549 17.979 14.4959 17.8983C13.302 17.8153 12.1267 17.6342 11.0128 17.1837C10.6155 17.0229 10.238 16.8277 9.93785 16.5168C9.85584 16.4318 9.81736 16.3425 9.82002 16.2225C9.82772 15.861 9.82269 15.4993 9.82269 15.1143L9.82209 15.1146Z" fill="#F18B00"/>
<path d="M17.2464 5.69058C18.5217 6.51369 19.9492 6.77265 21.4084 6.92079C22.9824 7.08071 24.5511 7.02874 26.1074 6.74279C26.9819 6.58202 27.8338 6.35004 28.6104 5.90935C28.6699 5.87547 28.727 5.83786 28.7847 5.80111C28.8407 5.76551 28.8963 5.72905 28.9724 5.67938C28.9724 6.10084 28.9766 6.5002 28.968 6.89926C28.9668 6.95611 28.912 7.01898 28.8682 7.06693C28.5757 7.38561 28.1956 7.57854 27.7998 7.74276C27.0378 8.05828 26.2355 8.23025 25.4197 8.34767C24.4262 8.49065 23.4265 8.52424 22.4238 8.48979C22.1135 8.47916 21.8036 8.45246 21.4939 8.42835C21.4368 8.42404 21.377 8.40624 21.3264 8.38012C20.477 7.94028 19.5587 7.71175 18.6194 7.54839C18.3965 7.50963 18.1712 7.48207 17.9471 7.44992C17.6309 7.40455 17.4513 7.17947 17.2653 6.96328C17.2514 6.94692 17.2479 6.9185 17.2476 6.89582C17.2467 6.49962 17.247 6.10343 17.247 5.69029L17.2464 5.69058Z" fill="#F18B00"/>
<path d="M11.7676 7.01869C11.7676 7.2145 11.7585 7.38704 11.7706 7.55815C11.7801 7.69051 11.7395 7.74706 11.5995 7.78094C11.0344 7.9176 10.487 8.10536 9.97455 8.37868C9.65306 8.55036 9.34488 8.74358 9.12819 9.037C9.03286 9.1659 8.96655 9.31979 8.91208 9.4708C8.88455 9.54746 8.85494 9.57502 8.77709 9.58937C7.70662 9.78431 6.62608 9.85695 5.53904 9.83369C4.42239 9.80986 3.3161 9.69445 2.23408 9.41252C1.61833 9.25203 1.01945 9.04992 0.487764 8.69592C0.451352 8.67152 0.416419 8.64453 0.380599 8.61956C0.139329 8.45103 -0.00572876 8.25121 0.0300917 7.93425C0.0632478 7.64198 0.0371965 7.3434 0.0371965 7.04339C0.0608795 7.04339 0.0780496 7.03822 0.0866347 7.04425C0.746796 7.50418 1.49873 7.7574 2.27731 7.94229C3.82765 8.31064 5.40286 8.39504 6.99169 8.30346C8.05801 8.24202 9.10835 8.08957 10.1297 7.77721C10.6862 7.60696 11.2209 7.38963 11.6969 7.05372C11.7114 7.04339 11.7295 7.03736 11.7674 7.01898L11.7676 7.01869Z" fill="#F18B00"/>
<path d="M0.0374926 13.0928C0.619797 13.5074 1.24532 13.7457 1.89542 13.9283C2.90401 14.2114 3.93777 14.348 4.98397 14.4003C6.26906 14.4643 7.54676 14.4023 8.81409 14.1761C8.84754 14.17 8.88218 14.17 8.92422 14.1666V15.65C8.65689 15.6925 8.38691 15.7413 8.11515 15.7775C6.89873 15.9397 5.67788 15.967 4.45495 15.8616C3.35665 15.7672 2.27612 15.5866 1.24976 15.176C0.888598 15.0316 0.545195 14.8553 0.251823 14.599C0.107357 14.4726 0.0185462 14.336 0.0315719 14.1284C0.0525904 13.7957 0.0371965 13.4606 0.0371965 13.0925L0.0374926 13.0928Z" fill="#F18B00"/>
<path d="M0.0478539 15.2599C1.03662 15.9268 2.14646 16.1969 3.28442 16.379C4.82204 16.6247 6.36675 16.6365 7.91325 16.4637C8.20189 16.4315 8.48786 16.3795 8.77531 16.337C8.82267 16.3302 8.87034 16.3253 8.93162 16.3178C8.93162 16.7973 8.9331 17.2647 8.92747 17.7323C8.92718 17.7605 8.87152 17.8084 8.83718 17.8127C8.19744 17.8937 7.55889 17.9896 6.9165 18.0413C5.99553 18.115 5.07278 18.0861 4.15447 17.9867C3.02421 17.8644 1.91259 17.6637 0.883269 17.1633C0.599962 17.0255 0.330273 16.8644 0.12956 16.6207C0.0792337 16.5595 0.0437094 16.4691 0.0413411 16.391C0.0318679 16.0568 0.0371965 15.7221 0.0377886 15.3876C0.0377886 15.3509 0.0431173 15.3144 0.0475578 15.2599H0.0478539Z" fill="#F18B00"/>
<path d="M8.92658 10.1458V11.6057C8.44819 11.668 7.97216 11.7417 7.49347 11.7897C6.55415 11.8839 5.61186 11.8908 4.67076 11.8207C3.43214 11.7283 2.21366 11.5396 1.06829 11.0415C0.729626 10.8942 0.411683 10.7125 0.153539 10.4461C0.0715368 10.3614 0.0321639 10.2709 0.0351243 10.1512C0.0428212 9.83599 0.0374926 9.52018 0.0380847 9.20495C0.0380847 9.1593 0.0422292 9.11365 0.0451895 9.05164C0.19824 9.14495 0.331457 9.23337 0.471186 9.31003C1.21809 9.72 2.03337 9.93791 2.8676 10.0981C4.07839 10.3304 5.30369 10.4085 6.53372 10.351C7.32976 10.3137 8.12284 10.2173 8.92718 10.1466L8.92658 10.1458Z" fill="#F18B00"/>
<path d="M0.0374926 11.0705C1.02803 11.7397 2.1281 12.0076 3.25571 12.1925C4.50113 12.3966 5.75722 12.4469 7.01596 12.3576C7.61958 12.3148 8.21906 12.2192 8.8206 12.1477C8.84961 12.1443 8.87863 12.14 8.92037 12.1345V13.6311C8.51154 13.6874 8.09975 13.7534 7.6853 13.7997C6.71253 13.9079 5.7362 13.9234 4.75987 13.8554C3.48632 13.7667 2.2329 13.5792 1.05586 13.0638C0.72637 12.9197 0.4179 12.742 0.1639 12.4859C0.0739051 12.3955 0.0300917 12.2979 0.0342362 12.1664C0.0440054 11.856 0.0371965 11.5451 0.0371965 11.2344C0.0371965 11.1882 0.0371965 11.142 0.0371965 11.0705H0.0374926Z" fill="#F18B00"/>
<path d="M22.3732 10.5075C22.3732 10.2899 22.3447 10.0714 22.38 9.86327C22.4294 9.56899 22.3678 9.3152 22.1979 9.0769C22.1875 9.06255 22.1796 9.04647 22.1662 9.02408C22.2991 9.02408 22.4199 9.02149 22.5404 9.02436C24.2367 9.06743 25.9099 8.93393 27.5313 8.40969C28.0192 8.25178 28.4848 8.04679 28.9025 7.74993C28.917 7.7396 28.9348 7.733 28.9727 7.71319C28.9727 8.0333 28.9478 8.33877 28.9795 8.63879C29.0121 8.94943 28.8682 9.14179 28.6346 9.31232C28.1376 9.67464 27.5692 9.88652 26.9798 10.0516C25.5052 10.4639 23.9951 10.5652 22.4694 10.5219C22.4407 10.521 22.4122 10.5135 22.3732 10.5075Z" fill="#F18B00"/>
<path d="M22.3743 12.5373V11.0613C22.5697 11.0613 22.7601 11.061 22.9504 11.0613C24.4664 11.0651 25.9632 10.9298 27.4153 10.4762C27.9611 10.3057 28.4822 10.0835 28.9727 9.7289C28.9727 9.86585 28.9727 9.97724 28.9727 10.0884C28.9727 10.3559 28.9771 10.6238 28.9694 10.8911C28.9677 10.9565 28.9458 11.043 28.8993 11.0823C28.6965 11.254 28.497 11.4377 28.2672 11.5695C27.6287 11.9364 26.9191 12.1267 26.1985 12.2703C24.9658 12.5161 23.7189 12.5993 22.462 12.5453C22.4377 12.5442 22.4134 12.5407 22.3746 12.5367L22.3743 12.5373Z" fill="#F18B00"/>
<path d="M22.3746 14.5665V13.0831C22.4401 13.0831 22.5022 13.0816 22.5641 13.0831C23.8599 13.1147 25.1467 13.038 26.4155 12.767C27.2364 12.5916 28.0357 12.3559 28.751 11.9086C28.817 11.8672 28.8809 11.8233 28.9603 11.771C28.9653 11.817 28.9721 11.8514 28.9724 11.8862C28.9733 12.2255 28.9783 12.5649 28.9691 12.9039C28.9671 12.982 28.9327 13.0727 28.8821 13.1333C28.6601 13.3986 28.3614 13.5686 28.05 13.7161C27.2945 14.0741 26.4869 14.2645 25.6633 14.3965C24.5943 14.5679 23.5167 14.615 22.4347 14.5751C22.4202 14.5746 22.406 14.5711 22.3749 14.5665H22.3746Z" fill="#F18B00"/>
<path d="M22.3764 16.6003V15.1195C22.5893 15.1195 22.7947 15.1195 22.9999 15.1195C24.4158 15.1209 25.8152 14.9943 27.1799 14.605C27.8105 14.425 28.4144 14.1873 28.973 13.7882C28.973 13.8539 28.973 13.8944 28.973 13.9346C28.973 14.2117 28.952 14.4907 28.9789 14.7655C29.0047 15.029 28.8866 15.1984 28.6932 15.3509C28.2572 15.6948 27.7495 15.9001 27.2225 16.0655C26.2317 16.3767 25.2104 16.5291 24.1737 16.5808C23.6325 16.6078 23.0893 16.6012 22.5472 16.6086C22.4939 16.6095 22.441 16.6035 22.3764 16.6V16.6003Z" fill="#F18B00"/>
</svg>
