<svg width="24" height="22" viewBox="0 0 24 22" fill="none" xmlns="http://www.w3.org/2000/svg">
<path d="M4.8 17.1111H10.8V14.6667H4.8V17.1111ZM16.8 17.1111H19.2V14.6667H16.8V17.1111ZM4.8 12.2222H10.8V9.77778H4.8V12.2222ZM16.8 12.2222H19.2V4.88889H16.8V12.2222ZM4.8 7.33333H10.8V4.88889H4.8V7.33333ZM2.4 22C1.74 22 1.1752 21.7609 0.7056 21.2826C0.2352 20.8034 0 20.2278 0 19.5556V2.44444C0 1.77222 0.2352 1.19656 0.7056 0.717444C1.1752 0.239148 1.74 0 2.4 0H21.6C22.26 0 22.8252 0.239148 23.2956 0.717444C23.7652 1.19656 24 1.77222 24 2.44444V19.5556C24 20.2278 23.7652 20.8034 23.2956 21.2826C22.8252 21.7609 22.26 22 21.6 22H2.4Z" fill="#656565"/>
</svg>
