<svg width="19" height="22" viewBox="0 0 19 22" fill="none" xmlns="http://www.w3.org/2000/svg">
<path d="M1.25162 9.16435C1.25162 9.39144 1.21738 9.62233 1.26392 9.83529C1.29387 9.97383 1.41958 10.1173 1.54046 10.2053C2.12565 10.6317 2.81139 10.7985 3.50302 10.9311C4.45248 11.1125 5.41102 11.1582 6.37438 11.0881C6.46318 11.0816 6.55197 11.0778 6.6413 11.0761C6.65574 11.0761 6.67072 11.0924 6.67232 11.093C6.60707 11.5325 6.54234 11.9655 6.47334 12.4278C5.61054 12.5109 4.72474 12.455 3.84215 12.342C2.95849 12.229 2.10051 12.0073 1.28799 11.6124C1.19866 12.4615 1.16657 12.5343 1.88601 12.8961C2.96117 13.4372 4.1326 13.5551 5.31207 13.5986C5.70201 13.6132 6.09249 13.6008 6.50062 13.6008V14.8775C4.71672 14.9638 2.96491 14.8296 1.3019 14.0723C1.11147 14.7085 1.27355 15.0633 1.86141 15.3458C2.68516 15.7418 3.56133 15.9363 4.46264 15.989C5.13448 16.0281 5.8106 15.9966 6.50169 15.9966V17.2825C6.31126 17.295 6.11923 17.3173 5.9272 17.3189C4.38561 17.3325 2.86916 17.1902 1.44044 16.541C0.963303 16.3242 0.516124 16.0477 0.245998 15.5794C0.116552 15.3555 0.0127804 15.0768 0.0117106 14.8226C-0.00326664 10.7187 -0.00112703 6.6142 0.00315219 2.50974C0.0036871 1.76382 0.48617 1.3292 1.05424 0.989648C1.9518 0.45289 2.95207 0.236122 3.97267 0.105192C5.06387 -0.0344301 6.15828 -0.0366032 7.24841 0.107909C8.41076 0.262199 9.5485 0.508304 10.5172 1.24173C10.9959 1.6041 11.2431 2.08327 11.2399 2.70478C11.2302 4.53997 11.2324 6.3757 11.2415 8.21089C11.2425 8.44722 11.1778 8.54012 10.9419 8.57598C10.1487 8.69767 9.37893 8.91335 8.6504 9.26322C8.54609 9.3132 8.42467 9.34471 8.34069 9.41914C7.86302 9.84073 7.27195 9.87984 6.68944 9.92113C5.40514 10.0124 4.12458 9.97383 2.86756 9.6647C2.33479 9.53377 1.81647 9.34145 1.25108 9.16435H1.25162ZM5.5838 3.78318C6.67767 3.75004 7.75229 3.67127 8.77931 3.30075C9.11095 3.18123 9.4351 3.01825 9.73036 2.8243C10.0385 2.6222 10.0272 2.46302 9.74053 2.23756C9.60841 2.13379 9.46077 2.04469 9.3094 1.97189C8.56107 1.61116 7.76192 1.44709 6.94299 1.36505C5.39551 1.20968 3.86515 1.26944 2.37866 1.77794C2.07162 1.8828 1.77743 2.0485 1.50356 2.22778C1.18154 2.43857 1.19331 2.61839 1.51104 2.8444C1.656 2.94762 1.81166 3.03998 1.97267 3.11386C3.12592 3.64193 4.3578 3.73592 5.5838 3.78318ZM1.25429 6.69026C1.25429 6.80435 1.27087 6.93039 1.25108 7.05045C1.18796 7.43455 1.36555 7.69043 1.68649 7.82897C2.1663 8.0365 2.64932 8.26414 3.15373 8.38094C4.55411 8.70582 5.97428 8.73353 7.39605 8.51567C8.13635 8.40213 8.86489 8.23534 9.52229 7.85233C10.0117 7.56711 10.1171 7.23897 9.94433 6.70058C7.05478 7.79366 4.17272 7.79474 1.25483 6.6908L1.25429 6.69026ZM1.25429 4.24605C1.25429 4.32592 1.26873 4.42425 1.25162 4.51715C1.16175 5.01262 1.44204 5.26687 1.82824 5.46191C2.46478 5.78353 3.14571 5.95466 3.84215 6.05897C4.85954 6.21109 5.88174 6.22576 6.90554 6.11928C7.74106 6.03181 8.55732 5.86122 9.32651 5.50483C9.95128 5.21526 10.108 4.88875 9.95021 4.25366C7.05692 5.32229 4.17005 5.32446 1.25376 4.24605H1.25429Z" fill="#F18B00"/>
<path d="M7.74644 15.7681C7.74644 14.6473 7.77854 13.5249 7.73628 12.4052C7.70311 11.5403 8.10536 10.9862 8.78683 10.5755C9.60469 10.0822 10.5124 9.86213 11.4389 9.72142C12.7232 9.52638 14.0128 9.52747 15.2971 9.72251C16.1968 9.85887 17.0768 10.0778 17.8791 10.5396C18.6173 10.9644 19.0147 11.555 18.9992 12.4715C18.9612 14.6946 18.9655 16.9193 18.9976 19.1429C19.0104 20.0236 18.6258 20.6033 17.9176 21.0162C17.0222 21.5377 16.0337 21.761 15.0233 21.8914C13.9144 22.0343 12.8018 22.0397 11.6946 21.8892C10.552 21.7338 9.42764 21.4997 8.47444 20.7766C7.99089 20.4099 7.72879 19.9361 7.74109 19.2945C7.76356 18.1199 7.74751 16.9443 7.74751 15.7686L7.74644 15.7681ZM13.3795 13.4141C14.1712 13.3125 14.9671 13.2364 15.7534 13.1017C16.3578 12.9979 16.9446 12.804 17.4555 12.4362C17.7866 12.1977 17.7967 12.0179 17.4565 11.8016C17.1661 11.6164 16.8532 11.4512 16.5295 11.3382C15.4934 10.9775 14.4156 10.8732 13.3255 10.8748C12.253 10.877 11.1928 10.9856 10.176 11.3447C9.82133 11.4697 9.48648 11.6723 9.16982 11.882C8.94997 12.0276 8.96014 12.1716 9.16233 12.3411C9.31799 12.4715 9.49343 12.5883 9.67637 12.6736C10.8494 13.2196 12.1011 13.3407 13.379 13.4141H13.3795ZM9.04679 16.2527C8.97137 17.1105 8.92751 17.1632 9.66942 17.5348C10.0321 17.7168 10.4284 17.8434 10.8221 17.9461C11.9631 18.2433 13.1308 18.2808 14.2963 18.1993C15.2554 18.1324 16.2038 17.97 17.0858 17.5403C17.7095 17.236 17.8369 16.9823 17.6999 16.2456C16.3284 16.8862 14.8767 17.0823 13.3886 17.085C11.8914 17.0877 10.4311 16.8894 9.04679 16.2532V16.2527ZM17.7309 13.7705C16.3348 14.4333 14.8708 14.6272 13.3779 14.6294C11.8866 14.6316 10.4263 14.4311 9.01363 13.7792C9.01363 13.9421 9.02914 14.0524 9.01095 14.1562C8.94088 14.5604 9.12435 14.8331 9.46722 14.9749C9.96629 15.1814 10.4696 15.4036 10.9928 15.5198C12.5675 15.8691 14.1535 15.8561 15.7331 15.5296C16.3348 15.4052 16.9307 15.2389 17.4341 14.8608C17.5641 14.7636 17.6791 14.5952 17.7186 14.4376C17.7673 14.2437 17.7304 14.0269 17.7304 13.7705H17.7309ZM9.03877 18.7545C8.92109 19.4341 9.00239 19.6498 9.53355 19.9378C9.7443 20.0518 9.9695 20.1426 10.1958 20.2213C11.1918 20.569 12.2252 20.681 13.2709 20.682C14.5686 20.6837 15.8481 20.5652 17.0527 20.0127C17.7026 19.715 17.8454 19.4401 17.7117 18.7512C14.8195 19.8302 11.9315 19.8345 9.03877 18.754V18.7545Z" fill="#F18B00"/>
</svg>
