<svg width="26" height="26" viewBox="0 0 26 26" fill="none" xmlns="http://www.w3.org/2000/svg">
<path d="M13.9822 26C13.6267 25.9169 13.2559 25.8734 12.9185 25.7425C12.2637 25.4882 11.621 25.1991 10.9854 24.898C9.4532 24.1722 7.92665 23.4335 6.40009 22.6955C5.78466 22.3981 5.14514 22.1931 4.46526 22.1204C4.33884 22.1068 4.21455 22.0701 4.08991 22.0395C3.92241 21.9985 3.81795 21.891 3.79494 21.7165C3.77157 21.5389 3.74607 21.3598 3.74465 21.181C3.73332 19.6273 3.72412 18.0736 3.72199 16.5199C3.72128 15.9161 3.80096 15.8017 4.37496 15.6287C5.26908 15.3593 6.18197 15.1727 7.10406 15.0306C8.03536 14.8871 8.96913 14.859 9.90716 14.9259C10.8735 14.995 11.7949 15.246 12.6784 15.6434C13.1224 15.8431 13.5654 16.0455 13.9992 16.2671C14.5173 16.5318 15.0615 16.6645 15.638 16.7066C16.8016 16.7915 17.9631 16.9087 19.1044 17.1662C19.5424 17.2651 19.9755 17.3964 20.4014 17.5406C20.814 17.6802 21.1298 17.9564 21.3377 18.3505C21.4836 18.6271 21.5151 18.908 21.389 19.2036C21.2417 19.5493 21.0569 19.8661 20.781 20.1236C20.4935 20.3923 20.1539 20.497 19.7694 20.4696C18.7159 20.3941 17.6631 20.3006 16.6083 20.2492C15.7612 20.2078 14.9121 20.2168 14.0637 20.2067C13.9716 20.2056 13.8795 20.2261 13.7875 20.2376C13.7758 20.2391 13.7648 20.247 13.7464 20.2553C13.7556 20.2679 13.7602 20.2815 13.7687 20.2848C14.3965 20.5372 15.019 20.8037 15.6539 21.0357C16.1858 21.2299 16.7464 21.2878 17.3108 21.2907C18.3299 21.2961 19.3423 21.2184 20.343 21.0195C21.0973 20.8699 21.7594 20.5185 22.3349 20.0085C22.8133 19.5845 23.3264 19.2295 23.9365 19.0342C24.4602 18.8666 24.9786 18.8476 25.4836 19.104C25.7357 19.2321 25.9234 19.4144 25.9836 19.7097C26.0239 19.9075 25.9914 20.0852 25.8696 20.2427C25.769 20.3729 25.6617 20.4984 25.5501 20.6351C25.6369 20.6833 25.7208 20.73 25.8051 20.7771C25.9552 20.8609 26.0069 20.9918 25.9892 21.1609C25.9552 21.4871 25.8274 21.7752 25.5926 21.9913C25.2562 22.301 24.9124 22.6078 24.5427 22.8735C23.7637 23.4335 22.9648 23.9644 22.1762 24.51C21.6309 24.8876 21.0268 25.08 20.3745 25.1645C19.5116 25.276 18.6536 25.4253 17.7924 25.5522C16.8352 25.6936 15.877 25.8288 14.9195 25.9662C14.8289 25.9791 14.7372 25.9878 14.6462 25.9986H13.9829L13.9822 26Z" fill="#656565"/>
<path d="M0.000354106 14.7634C0.18024 14.4562 0.465649 14.4044 0.786115 14.412C1.36897 14.426 1.95254 14.4239 2.5354 14.4368C2.74574 14.4415 2.92633 14.6076 2.94333 14.8234C2.9713 15.1763 2.99043 15.5312 2.98972 15.8851C2.98653 18.1297 2.97803 20.374 2.96847 22.6185C2.96776 22.7951 2.98618 22.9775 2.86082 23.1328C2.77655 23.2371 2.67917 23.3044 2.54638 23.304C1.83958 23.3033 1.13243 23.3058 0.42599 23.2947C0.163243 23.2904 0.0832149 23.2012 0.0563029 22.9358C0.0371811 22.7484 0.0325778 22.5599 0.0198299 22.3718C0.0159348 22.3146 0.00672801 22.2575 0 22.2006C0 19.7215 0 17.2425 0 14.7634H0.000354106Z" fill="#656565"/>
<path d="M16.7956 0C17.4641 0.043518 18.1398 0.0456759 18.8027 0.139905C20.0481 0.316854 21.2456 0.669313 22.3285 1.34798C22.734 1.60189 23.1008 1.904 23.388 2.29422C23.6691 2.67617 23.8632 3.09553 23.8508 3.5843C23.8388 4.06299 23.6692 4.48199 23.3625 4.84812C22.7715 5.55303 22.024 6.01591 21.1855 6.35614C20.2039 6.75427 19.1865 6.97258 18.1373 7.06142C17.0449 7.15385 15.956 7.13155 14.8703 6.9769C13.6479 6.80283 12.479 6.46224 11.4174 5.80191C10.9847 5.53289 10.6019 5.20597 10.28 4.80316C9.77332 4.16873 9.65186 3.07863 10.3009 2.29135C10.7861 1.70259 11.3778 1.27461 12.0591 0.960632C13.0364 0.510347 14.0651 0.242046 15.126 0.111133C15.6773 0.0431583 16.2358 0.0356056 16.796 0.000719305L16.7956 0Z" fill="#656565"/>
<path d="M9.955 5.58936C10.2422 5.82025 10.5148 6.06518 10.8119 6.27306C11.6597 6.86648 12.608 7.22685 13.6055 7.45955C15.0584 7.79834 16.5293 7.91451 18.0162 7.80913C19.7315 7.68757 21.3438 7.21894 22.8168 6.30471C23.1093 6.12308 23.371 5.89074 23.6465 5.68143C23.6805 5.65553 23.7127 5.62676 23.7524 5.59367C23.968 6.23349 23.8416 6.80606 23.4868 7.34014C23.0792 7.95371 22.502 8.36156 21.8689 8.69783C20.9953 9.16214 20.0608 9.43548 19.0906 9.58797C17.6834 9.80952 16.2712 9.81383 14.8611 9.63617C13.5194 9.46713 12.2641 9.03411 11.1342 8.26589C10.6505 7.93681 10.2351 7.53436 9.99785 6.98049C9.81407 6.55071 9.78999 6.10474 9.92384 5.65301C9.93092 5.62892 9.94615 5.60698 9.955 5.589V5.58936Z" fill="#656565"/>
<path d="M9.92841 8.26123C9.98683 8.30295 10.0378 8.33064 10.0785 8.36984C10.569 8.84422 11.1607 9.15748 11.7602 9.45635C12.7485 9.94944 13.7942 10.2749 14.8862 10.3778C16.7637 10.5544 18.6387 10.5565 20.4765 10.0228C21.5937 9.6984 22.6263 9.21035 23.508 8.42487C23.5764 8.36409 23.6536 8.31338 23.7676 8.2267C23.8002 8.40581 23.8416 8.54607 23.8483 8.68813C23.877 9.28552 23.6904 9.80521 23.2945 10.2523C22.6557 10.973 21.8515 11.4258 20.9659 11.7445C19.7262 12.1901 18.4468 12.3929 17.1313 12.4095C15.6844 12.4278 14.2644 12.2861 12.8902 11.8002C12.1047 11.5226 11.3604 11.1665 10.7297 10.6026C10.3278 10.2429 10.0084 9.82535 9.88769 9.28012C9.82041 8.97729 9.84023 8.67339 9.893 8.37092C9.89866 8.33783 9.91424 8.30618 9.92947 8.26087L9.92841 8.26123Z" fill="#656565"/>
<path d="M23.7446 10.859C23.7786 11.0007 23.8048 11.0985 23.825 11.1978C23.933 11.7304 23.7672 12.1973 23.4871 12.6368C23.1691 13.1352 22.7251 13.4931 22.2322 13.7941C21.3859 14.3117 20.4585 14.6062 19.4995 14.8166C18.4638 15.0439 17.4163 15.0799 16.3618 15.0554C15.2733 15.0302 14.2057 14.8867 13.1667 14.5476C12.3289 14.2743 11.5311 13.9204 10.8406 13.3528C10.4971 13.0705 10.1958 12.7468 10.0159 12.3314C9.82537 11.8916 9.77934 11.4337 9.92487 10.9672C9.92983 10.9511 9.94045 10.9363 9.95072 10.9169C10.1288 11.0694 10.2928 11.2334 10.4787 11.3647C11.4808 12.0717 12.5885 12.5382 13.7726 12.8234C15.0251 13.1252 16.2956 13.1957 17.5778 13.1291C18.7619 13.0676 19.9234 12.8802 21.0481 12.4958C21.8954 12.2063 22.6769 11.7829 23.3724 11.2071C23.4907 11.1093 23.598 10.9971 23.7449 10.859H23.7446Z" fill="#656565"/>
</svg>
