<svg width="25" height="20" viewBox="0 0 25 20" fill="none" xmlns="http://www.w3.org/2000/svg">
<path d="M23.0653 4.97952C23.0778 5.20082 23.0778 5.42212 23.0778 5.63146C23.0747 6.99336 22.8673 8.34778 22.4617 9.65318C21.6065 12.6619 19.7285 15.3122 17.1245 17.1856C14.5205 19.0589 11.3387 20.0485 8.08167 19.9982C5.215 20.0012 2.40849 19.2111 0 17.7229C0.417499 17.7721 0.83778 17.7965 1.25843 17.7959C3.63089 17.798 5.93497 17.0353 7.79925 15.6307C6.70126 15.611 5.63704 15.2639 4.7549 14.6378C3.87277 14.0117 3.21666 13.1377 2.87801 12.1377C3.20504 12.1914 3.53599 12.2202 3.86776 12.2239C4.34102 12.2256 4.81218 12.1636 5.2674 12.0397C4.13986 11.8256 3.1169 11.2632 2.35563 10.4388C1.59437 9.61434 1.1369 8.57347 1.05348 7.47605C1.03234 7.34991 1.02397 7.22212 1.02849 7.09445V7.03344C1.76067 7.42334 2.58033 7.63837 3.41787 7.66026C2.69643 7.20041 2.10513 6.57676 1.69671 5.84496C1.2883 5.11316 1.07547 4.29597 1.07722 3.46629C1.0764 2.57278 1.32028 1.69467 1.78454 0.919518C3.10802 2.48068 4.76017 3.7575 6.63341 4.66684C8.50665 5.57618 10.559 6.09764 12.6567 6.19728C12.3921 5.11519 12.508 3.97975 12.9864 2.96716C13.4649 1.95456 14.2791 1.12144 15.3027 0.597088C16.3264 0.0727316 17.5022 -0.113538 18.6477 0.0671847C19.7933 0.247908 20.8445 0.785517 21.6382 1.59658C22.8214 1.37319 23.9559 0.957255 24.9923 0.36686C25.0368 1.22327 24.8875 2.07878 24.5548 2.87488C24.222 3.67098 23.7147 4.38889 23.0653 4.97952Z" fill="#606060"/>
</svg>
