<svg width="29" height="29" viewBox="0 0 29 29" fill="none" xmlns="http://www.w3.org/2000/svg">
<path d="M7.26285 16.5471C7.09048 16.5471 6.95567 16.5471 6.82085 16.5471C5.36312 16.5471 3.90538 16.5543 2.44703 16.5447C1.42021 16.538 0.662413 16.0743 0.238267 15.1608C-0.177877 14.2634 -0.044908 13.4149 0.605779 12.6543C0.702427 12.5417 0.807079 12.4345 0.913577 12.3303C4.82262 8.50502 8.7329 4.68032 12.6432 0.856217C13.8067 -0.281377 15.2028 -0.285593 16.3583 0.844775C20.3135 4.71223 24.2693 8.57849 28.2209 12.449C29.2803 13.4866 29.2551 15.0277 28.171 15.9756C27.7438 16.3495 27.239 16.5453 26.6616 16.5459C25.1786 16.5471 23.6956 16.5459 22.2126 16.5459C22.0778 16.5459 21.9424 16.5459 21.7639 16.5459C21.7639 16.7133 21.7639 16.8452 21.7639 16.977C21.7639 18.3417 21.7669 19.7057 21.7626 21.0703C21.7577 22.6409 20.7524 23.6231 19.1531 23.6238C16.0616 23.625 12.9701 23.625 9.87791 23.6238C8.28474 23.6238 7.26223 22.6247 7.261 21.0697C7.25977 19.7051 7.261 18.3411 7.261 16.9764C7.261 16.8446 7.261 16.7133 7.261 16.5459L7.26285 16.5471Z" fill="#494949"/>
<path d="M14.4979 25.9917C16.4715 25.9917 18.4451 25.9911 20.4181 25.9917C21.1839 25.9917 21.7348 26.4843 21.7342 27.1618C21.7342 27.8381 21.1783 28.3446 20.4199 28.3452C16.4604 28.3476 12.5009 28.3476 8.54136 28.3452C7.77802 28.3452 7.23629 27.8471 7.23568 27.1624C7.23568 26.4662 7.7614 25.9917 8.53951 25.9917C10.5254 25.9905 12.5113 25.9917 14.4979 25.9917Z" fill="#494949"/>
</svg>
