<svg width="26" height="26" viewBox="0 0 26 26" fill="none" xmlns="http://www.w3.org/2000/svg">
<path d="M21.5 12.5C21.5 16.9183 17.9183 20.5 13.5 20.5C9.08172 20.5 5.5 16.9183 5.5 12.5C5.5 8.08172 9.08172 4.5 13.5 4.5C17.9183 4.5 21.5 8.08172 21.5 12.5Z" fill="white"/>
<path d="M13 0C11.2928 0 9.60235 0.336255 8.02512 0.989566C6.44788 1.64288 5.01477 2.60045 3.80761 3.80761C1.36964 6.24558 0 9.55219 0 13C0 16.4478 1.36964 19.7544 3.80761 22.1924C5.01477 23.3995 6.44788 24.3571 8.02512 25.0104C9.60235 25.6637 11.2928 26 13 26C16.4478 26 19.7544 24.6304 22.1924 22.1924C24.6304 19.7544 26 16.4478 26 13C26 11.2928 25.6637 9.60235 25.0104 8.02512C24.3571 6.44788 23.3995 5.01477 22.1924 3.80761C20.9852 2.60045 19.5521 1.64288 17.9749 0.989566C16.3977 0.336255 14.7072 0 13 0ZM18.46 18.46L11.7 14.3V6.5H13.65V13.26L19.5 16.77L18.46 18.46Z" fill="#F18B00"/>
<path d="M8.48924 21.5H5.51165V20.8476L6.58091 19.7218C6.7965 19.4912 6.96937 19.2991 7.09951 19.1453C7.23159 18.9895 7.32676 18.8479 7.38503 18.7205C7.44524 18.5931 7.47535 18.4565 7.47535 18.3109C7.47535 18.1349 7.42776 18.0034 7.33259 17.9164C7.23935 17.8274 7.11407 17.7829 6.95675 17.7829C6.79165 17.7829 6.63141 17.8223 6.47602 17.9012C6.32063 17.9801 6.15845 18.0924 5.98947 18.238L5.5 17.6342C5.62237 17.525 5.75153 17.4218 5.88749 17.3247C6.0254 17.2276 6.18467 17.1497 6.36531 17.091C6.54789 17.0303 6.7664 17 7.02084 17C7.30054 17 7.54042 17.0526 7.74048 17.1578C7.94248 17.263 8.09786 17.4066 8.20663 17.5887C8.3154 17.7687 8.36979 17.973 8.36979 18.2016C8.36979 18.4464 8.32317 18.6699 8.22994 18.8722C8.13671 19.0745 8.00075 19.2748 7.82205 19.473C7.6453 19.6713 7.43164 19.8908 7.18108 20.1315L6.63335 20.6686V20.7111H8.48924V21.5Z" fill="white"/>
<path d="M12 20.5806H11.4872V21.5H10.6074V20.5806H8.78933V19.9282L10.6569 17.0637H11.4872V19.8523H12V20.5806ZM10.6074 19.8523V19.0998C10.6074 19.029 10.6083 18.945 10.6103 18.8479C10.6141 18.7508 10.618 18.6537 10.6219 18.5566C10.6258 18.4595 10.6297 18.3736 10.6336 18.2987C10.6394 18.2218 10.6433 18.1682 10.6452 18.1379H10.6219C10.585 18.2208 10.5462 18.3018 10.5054 18.3806C10.4646 18.4575 10.417 18.5384 10.3626 18.6234L9.5818 19.8523H10.6074Z" fill="white"/>
</svg>
