<svg width="26" height="26" viewBox="0 0 26 26" fill="none" xmlns="http://www.w3.org/2000/svg">
<path d="M26 13C26 20.1797 20.1797 26 13 26C5.8203 26 0 20.1797 0 13C0 5.8203 5.8203 0 13 0C20.1797 0 26 5.8203 26 13Z" fill="#F18B00"/>
<path d="M15.9091 8C16.6079 8 17.1444 8.52687 17.5418 9.09375L17.6764 9.29438L17.7996 9.49438C17.8388 9.55937 17.8761 9.62438 17.9121 9.68688C18.4093 10.5662 18.8422 11.7144 19.1284 12.8488C19.4127 13.9744 19.5701 15.15 19.4696 16.0744C19.3685 17.0025 18.8851 18 17.8047 18C16.8354 18 16.0715 17.4875 15.451 16.9869L14.7497 16.405C14.1665 15.9325 13.5283 15.5 12.7499 15.5C11.9714 15.5 11.3326 15.9325 10.7507 16.405L10.0494 16.9862C9.42762 17.4875 8.66371 18 7.69509 18C6.61399 18 6.13063 17.0025 6.03017 16.0744C5.93033 15.1494 6.08703 13.9744 6.37136 12.8481C6.65759 11.7144 7.09041 10.5669 7.58767 9.68688L7.70014 9.49375L7.82335 9.29438L7.95794 9.09375C8.35537 8.52687 8.89181 8 9.59063 8C9.91288 8 10.2332 8.0775 10.5479 8.16875L10.9226 8.2825C10.9845 8.30125 11.0458 8.31938 11.1071 8.33625C11.6536 8.49125 12.2128 8.625 12.7499 8.625C13.2869 8.625 13.8461 8.49125 14.3927 8.33625L14.9519 8.16937C15.2665 8.0775 15.5869 8 15.9091 8ZM10.5384 10.5C10.1195 10.5 9.71768 10.6646 9.42144 10.9576C9.12521 11.2507 8.95878 11.6481 8.95878 12.0625C8.95878 12.4769 9.12521 12.8743 9.42144 13.1674C9.71768 13.4604 10.1195 13.625 10.5384 13.625C10.9573 13.625 11.3591 13.4604 11.6554 13.1674C11.9516 12.8743 12.118 12.4769 12.118 12.0625C12.118 11.6481 11.9516 11.2507 11.6554 10.9576C11.3591 10.6646 10.9573 10.5 10.5384 10.5ZM14.9613 10.5C14.7938 10.5 14.6331 10.5658 14.5146 10.6831C14.3961 10.8003 14.3295 10.9592 14.3295 11.125V11.4375H14.0136C13.846 11.4375 13.6853 11.5033 13.5668 11.6206C13.4483 11.7378 13.3817 11.8967 13.3817 12.0625C13.3817 12.2283 13.4483 12.3872 13.5668 12.5044C13.6853 12.6217 13.846 12.6875 14.0136 12.6875H14.3295V13C14.3295 13.1658 14.3961 13.3247 14.5146 13.4419C14.6331 13.5592 14.7938 13.625 14.9613 13.625C15.1289 13.625 15.2896 13.5592 15.4081 13.4419C15.5266 13.3247 15.5932 13.1658 15.5932 13V12.6875H15.9091C16.0767 12.6875 16.2374 12.6217 16.3559 12.5044C16.4744 12.3872 16.541 12.2283 16.541 12.0625C16.541 11.8967 16.4744 11.7378 16.3559 11.6206C16.2374 11.5033 16.0767 11.4375 15.9091 11.4375H15.5932V11.125C15.5932 10.9592 15.5266 10.8003 15.4081 10.6831C15.2896 10.5658 15.1289 10.5 14.9613 10.5ZM10.5384 11.75C10.6222 11.75 10.7026 11.7829 10.7618 11.8415C10.821 11.9001 10.8543 11.9796 10.8543 12.0625C10.8543 12.1454 10.821 12.2249 10.7618 12.2835C10.7026 12.3421 10.6222 12.375 10.5384 12.375C10.4546 12.375 10.3743 12.3421 10.315 12.2835C10.2558 12.2249 10.2225 12.1454 10.2225 12.0625C10.2225 11.9796 10.2558 11.9001 10.315 11.8415C10.3743 11.7829 10.4546 11.75 10.5384 11.75Z" fill="white"/>
</svg>
