<svg width="24" height="24" viewBox="0 0 24 24" fill="none" xmlns="http://www.w3.org/2000/svg">
<path d="M2.66667 24C1.93334 24 1.30534 23.7387 0.782669 23.216C0.260002 22.6933 -0.000886625 22.0658 2.26372e-06 21.3333V2.66667C2.26372e-06 1.93334 0.261336 1.30534 0.784002 0.782669C1.30667 0.260002 1.93422 -0.000886625 2.66667 2.26372e-06H21.3333C22.0667 2.26372e-06 22.6947 0.261336 23.2173 0.784002C23.74 1.30667 24.0009 1.93422 24 2.66667V21.3333C24 22.0667 23.7387 22.6947 23.216 23.2173C22.6933 23.74 22.0658 24.0009 21.3333 24H2.66667ZM6.66667 18.6667C7.04445 18.6667 7.36133 18.5387 7.61733 18.2827C7.87333 18.0267 8.00089 17.7102 8 17.3333V13.3333C8 12.9556 7.872 12.6387 7.616 12.3827C7.36 12.1267 7.04356 11.9991 6.66667 12C6.28889 12 5.972 12.128 5.716 12.384C5.46 12.64 5.33245 12.9564 5.33333 13.3333V17.3333C5.33333 17.7111 5.46133 18.028 5.71733 18.284C5.97333 18.54 6.28978 18.6676 6.66667 18.6667ZM17.3333 18.6667C17.7111 18.6667 18.028 18.5387 18.284 18.2827C18.54 18.0267 18.6676 17.7102 18.6667 17.3333V6.66667C18.6667 6.28889 18.5387 5.972 18.2827 5.716C18.0267 5.46 17.7102 5.33245 17.3333 5.33333C16.9556 5.33333 16.6387 5.46133 16.3827 5.71733C16.1267 5.97333 15.9991 6.28978 16 6.66667V17.3333C16 17.7111 16.128 18.028 16.384 18.284C16.64 18.54 16.9564 18.6676 17.3333 18.6667ZM12 18.6667C12.3778 18.6667 12.6947 18.5387 12.9507 18.2827C13.2067 18.0267 13.3342 17.7102 13.3333 17.3333V16C13.3333 15.6222 13.2053 15.3053 12.9493 15.0493C12.6933 14.7933 12.3769 14.6658 12 14.6667C11.6222 14.6667 11.3053 14.7947 11.0493 15.0507C10.7933 15.3067 10.6658 15.6231 10.6667 16V17.3333C10.6667 17.7111 10.7947 18.028 11.0507 18.284C11.3067 18.54 11.6231 18.6676 12 18.6667ZM12 12C12.3778 12 12.6947 11.872 12.9507 11.616C13.2067 11.36 13.3342 11.0436 13.3333 10.6667V10.6333C13.3333 10.2556 13.2053 9.94444 12.9493 9.7C12.6933 9.45555 12.3769 9.33333 12 9.33333C11.6222 9.33333 11.3053 9.46133 11.0493 9.71733C10.7933 9.97333 10.6658 10.2898 10.6667 10.6667V10.7C10.6667 11.0778 10.7947 11.3889 11.0507 11.6333C11.3067 11.8778 11.6231 12 12 12Z" fill="white"/>
</svg>
