<svg width="34" height="34" viewBox="0 0 34 34" fill="none" xmlns="http://www.w3.org/2000/svg">
<path d="M17.0011 7.79638e-08C26.3805 0.000889164 34.0213 7.64792 34 17.0122C33.9786 26.4005 26.3721 34.0013 16.9989 34C7.61903 33.9991 -0.0186463 26.3556 3.41944e-05 16.9878C0.0187147 7.60258 7.62792 -0.000889009 17.0011 7.79638e-08ZM23.4486 20.3774C22.8988 20.3774 22.3811 20.3734 21.8638 20.3836C21.8122 20.3845 21.7357 20.4668 21.7157 20.5259C21.6005 20.8682 21.4924 21.2132 21.3955 21.5612C21.3514 21.7182 21.2692 21.7604 21.1108 21.7595C20.03 21.7524 18.9492 21.7559 17.8684 21.7555C17.7973 21.7555 17.7261 21.7479 17.6256 21.7422V20.3965H15.9706V21.7466H12.6112C12.4804 21.2918 12.351 20.8411 12.222 20.3916H10.5279C10.6408 20.8535 10.7489 21.2954 10.8565 21.7364C10.8352 21.7435 10.8214 21.7524 10.8076 21.7524C9.71214 21.7542 8.61666 21.7577 7.52118 21.7502C7.45713 21.7502 7.36506 21.6728 7.33482 21.6084C7.16936 21.2545 7.02303 20.8918 6.85891 20.537C6.82866 20.4717 6.74727 20.3859 6.68811 20.3845C6.15616 20.3725 5.62377 20.3774 5.08781 20.3774C6.16595 24.4685 10.3744 28.8949 16.5439 29.1105C23.046 29.3376 27.7188 24.866 28.9398 20.3774C28.3962 20.3774 27.8572 20.3734 27.3181 20.3841C27.2652 20.385 27.1936 20.4681 27.1655 20.529C27.0059 20.8775 26.852 21.2292 26.707 21.5839C26.6505 21.7222 26.5682 21.7604 26.4223 21.7595C25.4821 21.7524 24.5423 21.7559 23.602 21.7559H23.0736C23.1995 21.2932 23.3187 20.854 23.4486 20.3774ZM28.8784 13.4025C27.4382 8.63303 22.3962 4.36675 15.8763 4.93043C9.99546 5.43899 6.16194 9.75461 5.1572 13.4025C5.69271 13.4025 6.22555 13.4074 6.75794 13.3959C6.81932 13.3945 6.90427 13.3158 6.93585 13.2518C7.11198 12.8949 7.281 12.5339 7.43934 12.1685C7.50205 12.0236 7.58967 11.9813 7.74356 11.9827C8.72785 11.9898 9.71258 11.9858 10.6973 11.9867C10.7667 11.9867 10.8361 11.9947 10.9148 11.9991C10.792 12.4739 10.6751 12.9278 10.5545 13.3936H12.2638C12.3915 12.9851 12.5227 12.5868 12.6383 12.1836C12.6823 12.0298 12.7553 11.9804 12.9167 11.9818C13.8641 11.9902 14.8119 11.9858 15.7593 11.9858H15.9897V13.387H17.6429V12.0031C17.6941 11.9951 17.7221 11.9867 17.7506 11.9867C18.846 11.9858 19.942 11.9831 21.0374 11.9924C21.1037 11.9929 21.2038 12.0769 21.2296 12.144C21.3884 12.5557 21.5307 12.974 21.6792 13.3936H23.3792C23.2449 12.9198 23.1154 12.4628 22.9864 12.0076C23.0033 11.9996 23.01 11.9938 23.0167 11.9938C24.134 11.9907 25.2517 11.9858 26.369 11.9916C26.433 11.9916 26.5233 12.0694 26.5553 12.1338C26.739 12.5037 26.9054 12.882 27.0864 13.2532C27.1157 13.3132 27.1873 13.3941 27.2407 13.395C27.7802 13.4056 28.3197 13.4012 28.8775 13.4012L28.8784 13.4025ZM23.9467 17.6937C23.9134 17.611 23.8969 17.579 23.8871 17.5452C23.7079 16.9215 23.5335 16.297 23.3485 15.675C23.3005 15.5141 23.2368 15.3527 23.1523 15.2083C23.0274 14.9953 22.6328 14.9375 22.3446 15.0705C22.104 15.1816 22.0417 15.3381 22.1391 15.6426C22.2561 16.0076 22.3838 16.3694 22.5101 16.7313C22.7214 17.3367 22.9317 17.9431 23.1497 18.5463C23.2693 18.8771 23.5366 18.9962 23.8666 18.9958C24.1891 18.9958 24.4693 18.9069 24.5996 18.573C24.7362 18.2227 24.8687 17.8711 24.9977 17.5181C25.1654 17.058 25.3273 16.5957 25.5056 16.0947C25.5546 16.2281 25.5879 16.317 25.6208 16.4068C25.885 17.134 26.1439 17.8635 26.4161 18.5881C26.538 18.9135 26.82 18.9976 27.1353 18.9962C27.4524 18.9949 27.7193 18.8989 27.8443 18.5735C27.9105 18.4014 27.975 18.2289 28.0355 18.0547C28.3157 17.2465 28.5946 16.4383 28.8721 15.6293C28.9264 15.471 28.9544 15.3123 28.8179 15.1745C28.5025 14.8566 27.9003 14.9767 27.754 15.3959C27.6521 15.6879 27.5716 15.9876 27.4844 16.2845C27.3506 16.7424 27.2189 17.2016 27.0726 17.7084C27.0205 17.5683 26.9867 17.4794 26.9547 17.3896C26.7203 16.7375 26.497 16.0814 26.2435 15.4368C26.1875 15.2945 26.0452 15.1523 25.9059 15.0825C25.4243 14.842 24.8892 15.0647 24.6877 15.5612C24.6543 15.643 24.625 15.7266 24.5961 15.8102C24.3844 16.4232 24.1735 17.0362 23.9476 17.6933L23.9467 17.6937ZM10.0155 17.7066C9.97455 17.5946 9.95187 17.5337 9.93008 17.4723C9.69523 16.8126 9.4595 16.1529 9.22644 15.4928C9.09879 15.1314 8.82125 15.0064 8.46588 15.0042C8.10516 15.002 7.8085 15.1171 7.67062 15.4812C7.54519 15.812 7.43044 16.1471 7.31347 16.481C7.17648 16.8717 7.04171 17.2629 6.89048 17.6982C6.85713 17.6008 6.83845 17.5537 6.82421 17.5048C6.61873 16.8122 6.42303 16.1165 6.20197 15.4292C6.15661 15.2887 6.04186 15.1251 5.91509 15.0651C5.65624 14.9429 5.37291 14.9673 5.14786 15.1714C4.94904 15.3519 5.0549 15.5706 5.12295 15.7693C5.37069 16.4952 5.62421 17.2185 5.87773 17.9422C5.95557 18.1649 6.02807 18.3903 6.12369 18.6055C6.26335 18.9193 6.54223 19.0042 6.85713 18.9949C7.16313 18.9856 7.42333 18.8869 7.54697 18.5735C7.63326 18.3539 7.72355 18.136 7.80361 17.9142C8.0171 17.323 8.22614 16.7304 8.45387 16.0911C8.50146 16.2218 8.53126 16.3036 8.56106 16.3859C8.82748 17.1202 9.08723 17.8573 9.36299 18.5881C9.48886 18.922 9.78108 19.002 10.1049 18.9958C10.4149 18.99 10.6729 18.8886 10.7916 18.573C10.9032 18.2765 11.0113 17.9782 11.1154 17.679C11.3529 16.9967 11.5891 16.3138 11.8204 15.6293C11.8733 15.4732 11.9018 15.3118 11.763 15.174C11.4432 14.8571 10.8463 14.9762 10.6991 15.3972C10.5946 15.6959 10.5136 16.0031 10.4242 16.3072C10.2917 16.7579 10.1609 17.2092 10.0159 17.7066H10.0155ZM16.9798 16.0911C17.0296 16.2276 17.0598 16.3103 17.0896 16.393C17.356 17.1274 17.6162 17.8644 17.892 18.5952C18.0103 18.9091 18.2869 18.9936 18.5943 18.9958C18.9016 18.998 19.1876 18.9198 19.3019 18.6059C19.6666 17.6012 20.0189 16.5917 20.3565 15.5772C20.3947 15.4621 20.3556 15.2643 20.2746 15.1767C19.966 14.8433 19.3655 14.9775 19.225 15.4056C19.0617 15.9026 18.9243 16.4081 18.7758 16.91C18.7024 17.158 18.6285 17.4065 18.54 17.7048C18.5 17.5941 18.48 17.539 18.46 17.4839C18.2171 16.8037 17.9881 16.1174 17.7208 15.447C17.658 15.2892 17.4877 15.1269 17.3285 15.0629C16.8081 14.854 16.3571 15.0736 16.1511 15.5928C16.1187 15.675 16.0884 15.7582 16.0595 15.8417C15.85 16.4463 15.6414 17.0513 15.4137 17.7102C15.3403 17.463 15.2816 17.2674 15.2233 17.0713C15.0557 16.5059 14.9022 15.936 14.7154 15.3768C14.6002 15.0313 14.2244 14.9091 13.8517 15.0545C13.567 15.1656 13.5038 15.3474 13.6377 15.7351C13.9508 16.641 14.2666 17.5461 14.5882 18.449C14.7301 18.8477 14.9285 18.986 15.3256 18.9962C15.7286 19.0069 15.9474 18.8655 16.112 18.4841C16.1614 18.369 16.2067 18.2521 16.249 18.1343C16.4878 17.4683 16.7253 16.8024 16.9798 16.0911Z" fill="white"/>
<path d="M25.5283 23.419C23.9125 25.3736 21.9243 26.597 19.4798 27.1883C19.535 27.1216 19.555 27.0887 19.5826 27.0651C20.7185 26.1102 21.601 24.9553 22.2752 23.6395C22.3624 23.4697 22.4589 23.4123 22.6475 23.4145C23.5051 23.4252 24.363 23.419 25.2205 23.419H25.5283Z" fill="white"/>
<path d="M13.8468 26.9904C11.7763 26.4361 9.66677 24.9624 8.53882 23.4354C8.61266 23.4292 8.67493 23.4199 8.73719 23.4199C9.58093 23.419 10.4251 23.4221 11.2689 23.4163C11.413 23.4154 11.4908 23.4528 11.5535 23.5928C12.1046 24.8326 12.8198 25.9635 13.7996 26.9149C13.8147 26.9295 13.8227 26.9509 13.8468 26.9904Z" fill="white"/>
<path d="M17.6491 26.429V23.4332H20.4775C19.7494 24.6428 18.8434 25.6435 17.6491 26.429Z" fill="white"/>
<path d="M15.9683 26.5059C14.787 25.7217 13.9802 24.6708 13.3299 23.4381H15.9683V26.5059Z" fill="white"/>
<path d="M25.3051 10.3379C24.2963 10.3379 23.3214 10.3392 22.346 10.3334C22.2962 10.3334 22.2254 10.2796 22.2001 10.2321C21.5231 8.9611 20.6598 7.83596 19.5666 6.87486C21.0241 6.9082 24.2772 8.86642 25.3046 10.3379H25.3051Z" fill="white"/>
<path d="M8.69761 10.3276C10.1373 8.67259 11.8813 7.57679 13.9864 6.9571C13.9299 7.02601 13.9046 7.06424 13.8726 7.09535C12.9559 7.984 12.2313 9.01134 11.6736 10.1569C11.6038 10.3001 11.5237 10.3427 11.3712 10.3414C10.5577 10.3343 9.74416 10.3383 8.93067 10.3379C8.86751 10.3379 8.80435 10.3325 8.69761 10.3276Z" fill="white"/>
<path d="M17.6505 7.49278C18.7526 8.25161 19.5946 9.20027 20.3053 10.317H17.6505V7.49278Z" fill="white"/>
<path d="M15.9688 7.50478V10.3214H13.4932C14.1301 9.2176 14.9102 8.26939 15.9688 7.50478Z" fill="white"/>
</svg>
