<svg width="27" height="29" viewBox="0 0 27 29" fill="none" xmlns="http://www.w3.org/2000/svg">
<path d="M22.5 29C21.25 29 20.1875 28.5771 19.3125 27.7313C18.4375 26.8854 18 25.8583 18 24.65C18 24.4808 18.0125 24.3054 18.0375 24.1236C18.0625 23.9429 18.1 23.78 18.15 23.635L7.575 17.69C7.15 18.0525 6.675 18.3362 6.15 18.5412C5.625 18.747 5.075 18.85 4.5 18.85C3.25 18.85 2.1875 18.4271 1.3125 17.5813C0.4375 16.7354 0 15.7083 0 14.5C0 13.2917 0.4375 12.2646 1.3125 11.4188C2.1875 10.5729 3.25 10.15 4.5 10.15C5.075 10.15 5.625 10.2525 6.15 10.4574C6.675 10.6633 7.15 10.9475 7.575 11.31L18.15 5.365C18.1 5.22 18.0625 5.05712 18.0375 4.87635C18.0125 4.69462 18 4.51917 18 4.35C18 3.14167 18.4375 2.11458 19.3125 1.26875C20.1875 0.422917 21.25 0 22.5 0C23.75 0 24.8125 0.422917 25.6875 1.26875C26.5625 2.11458 27 3.14167 27 4.35C27 5.55833 26.5625 6.58542 25.6875 7.43125C24.8125 8.27708 23.75 8.7 22.5 8.7C21.925 8.7 21.375 8.59705 20.85 8.39115C20.325 8.18622 19.85 7.9025 19.425 7.54L8.85 13.485C8.9 13.63 8.9375 13.7929 8.9625 13.9737C8.9875 14.1554 9 14.3308 9 14.5C9 14.6692 8.9875 14.8441 8.9625 15.0249C8.9375 15.2066 8.9 15.37 8.85 15.515L19.425 21.46C19.85 21.0975 20.325 20.8133 20.85 20.6074C21.375 20.4025 21.925 20.3 22.5 20.3C23.75 20.3 24.8125 20.7229 25.6875 21.5688C26.5625 22.4146 27 23.4417 27 24.65C27 25.8583 26.5625 26.8854 25.6875 27.7313C24.8125 28.5771 23.75 29 22.5 29Z" fill="white"/>
</svg>
